<svg width="323" height="243" fill="none" xmlns="http://www.w3.org/2000/svg"><path d="M322.864 121.742c0-10.635-.269-21.357.09-31.991.628-19.003-14.998-39.139-31.882-45.59-32.332-12.29-64.394-25.104-96.635-37.743-22.093-8.63-44.186-8.542-66.279.174C96.275 19.058 64.393 31.61 32.421 44.075 13.202 51.57 0 70.138 0 90.187v62.499c0 20.223 13.022 38.79 32.421 46.374 31.703 12.378 63.316 25.017 95.198 37.133 7.634 2.877 15.896 4.969 23.979 6.102 15.357 2.092 30.176-.61 44.545-6.276 31.703-12.639 63.765-24.494 95.378-37.482 19.758-8.107 30.355-23.536 31.253-44.543.449-10.722.09-21.531.09-32.252z" fill="#D1D1D1" fill-opacity=".25"/></svg>