<svg width="671" height="521" fill="none" xmlns="http://www.w3.org/2000/svg"><path d="M.282 259.812c0 22.786.56 45.758-.186 68.544-1.305 40.716 31.133 83.859 66.181 97.68 67.114 26.334 133.669 53.79 200.596 80.871 45.861 18.49 91.722 18.303 137.584-.374 66.181-26.707 132.363-53.602 198.731-80.31 39.895-16.062 67.3-55.844 67.3-98.801V193.509c0-43.33-27.032-83.112-67.3-99.361-65.809-26.521-131.431-53.603-197.613-79.564-15.846-6.163-32.998-10.645-49.776-13.073-31.879-4.483-62.639 1.307-92.468 13.447-65.809 27.081-132.363 52.482-197.986 80.31C24.331 112.639 2.333 145.697.47 190.707c-.932 22.973-.187 46.132-.187 69.105z" fill="#C7C7C7" opacity=".35"/></svg>