<svg width="46" height="109" fill="none" xmlns="http://www.w3.org/2000/svg"><g filter="url(#filter0_d_1301_55)"><mask id="mask0_1301_55" style="mask-type:alpha" maskUnits="userSpaceOnUse" x="0" y="0" width="43" height="101"><rect x=".5" y=".98" width="41.475" height="99.039" rx="9.5" fill="#D9D9D9" stroke="#000"/></mask><g mask="url(#mask0_1301_55)"><path d="M-.005 100.408c3.278 0 6.582-.084 9.86.027 5.856.195 12.061-4.638 14.05-9.86 3.787-10 7.736-19.916 11.632-29.888 2.66-6.833 2.632-13.666-.054-20.5-3.842-9.86-7.71-19.72-11.552-29.61C21.621 4.634 15.9.55 9.721.55H-9.542c-6.233 0-11.955 4.028-14.292 10.028-3.815 9.805-7.71 19.582-11.444 29.443a35.26 35.26 0 00-1.88 7.416c-.646 4.75.187 9.333 1.933 13.778 3.896 9.805 7.55 19.721 11.552 29.499 2.498 6.11 7.253 9.388 13.728 9.666 3.304.139 6.635.028 9.94.028z" fill="#767BA3" fill-opacity=".25"/><path d="M35.017 40.37h0c2.641 6.717 2.667 13.42.054 20.135a4160.668 4160.668 0 01-3.283 8.373c-2.813 7.163-5.624 14.32-8.351 21.52-.954 2.504-2.933 4.944-5.4 6.734-2.468 1.79-5.377 2.896-8.166 2.804-2.306-.079-4.631-.06-6.939-.043-.983.007-1.963.015-2.937.015-1.027 0-2.051.01-3.074.02-2.29.024-4.569.048-6.844-.048-3.156-.135-5.868-1-8.09-2.555-2.22-1.556-3.978-3.821-5.196-6.8h0c-2.345-5.729-4.566-11.493-6.788-17.261-1.572-4.08-3.144-8.162-4.761-12.233-1.723-4.384-2.535-8.88-1.904-13.524.344-2.464.98-4.984 1.853-7.31 2.535-6.696 5.145-13.352 7.754-20.008a3877.36 3877.36 0 003.688-9.43c2.266-5.817 7.81-9.709 13.826-9.709H9.72c5.96 0 11.505 3.945 13.745 9.709 2.244 5.775 4.497 11.542 6.748 17.304 1.604 4.104 3.206 8.205 4.804 12.306z" stroke="#767BA3" stroke-opacity=".3"/></g></g><defs><filter id="filter0_d_1301_55" x="0" y=".55" width="45.515" height="107.899" filterUnits="userSpaceOnUse" color-interpolation-filters="sRGB"><feFlood flood-opacity="0" result="BackgroundImageFix"/><feColorMatrix in="SourceAlpha" values="0 0 0 0 0 0 0 0 0 0 0 0 0 0 0 0 0 0 127 0" result="hardAlpha"/><feOffset dx="4" dy="4"/><feGaussianBlur stdDeviation="2"/><feComposite in2="hardAlpha" operator="out"/><feColorMatrix values="0 0 0 0 0.356863 0 0 0 0 0.356863 0 0 0 0 0.356863 0 0 0 0.25 0"/><feBlend in2="BackgroundImageFix" result="effect1_dropShadow_1301_55"/><feBlend in="SourceGraphic" in2="effect1_dropShadow_1301_55" result="shape"/></filter></defs></svg>