<svg width="21" height="21" fill="none" xmlns="http://www.w3.org/2000/svg"><path d="M18.655.548h0c-.417.066-.952.305-1.456.612-1.647 1.002-4.173 3.375-7.22 6.744h0a108.85 108.85 0 00-2.774 3.187l-.11.133-.002.002c-1.63-.862-2.892-1.42-3.849-1.667-.947-.245-1.786-.23-2.326.354l.368.34M18.656.547L7.942 20.463H7.94a.247.247 0 00-.006.002.822.822 0 01-.221.035.757.757 0 01-.23-.04l-.006-.002h0-.003a1.044 1.044 0 01-.496-.317l-.002-.002a1.852 1.852 0 01-.144-.215 9.929 9.929 0 01-.162-.279v-.001c-1.451-2.615-2.615-4.384-3.782-5.765a28.215 28.215 0 00-1.858-1.952h0a2.934 2.934 0 01-.3-.309 1.06 1.06 0 01-.177-.337h0a.893.893 0 01-.054-.3c0-.104.022-.209.04-.294v-.001c.066-.316.163-.54.38-.774l.366.34M18.656.548l.01-.002a1.946 1.946 0 00.104-.018h.005l-.12.02zm-17.37 9.704c.678-.735 2.325-.309 5.655 1.46l-5.655-1.46z" fill="#767BA3" stroke="#fff"/></svg>