<svg width="73" height="64" fill="none" xmlns="http://www.w3.org/2000/svg"><path d="M60.976 38.044c0-1.926-.048-3.867.016-5.793.11-3.44-2.647-7.087-5.626-8.255-5.706-2.225-11.364-4.545-17.054-6.834-3.898-1.562-7.797-1.547-11.696.032-5.626 2.257-11.252 4.53-16.895 6.787C6.33 25.338 4 28.7 4 32.33v11.316c0 3.662 2.298 7.024 5.721 8.397 5.595 2.241 11.174 4.53 16.8 6.724 1.347.52 2.805.9 4.232 1.104 2.71.38 5.325-.11 7.86-1.136 5.595-2.289 11.253-4.435 16.832-6.787 3.486-1.468 5.357-4.261 5.515-8.065.08-1.942.016-3.899.016-5.84z" stroke="#5B5B5B" stroke-width="8"/><path d="M60.604 3.992c1.484-.904 3.103-1.638 4.417-1.847l.02-.003.019-.003a5.243 5.243 0 00.269-.045m-4.725 1.898C55.759 6.94 48.4 13.865 39.583 23.616h0c-2.802 3.1-5.972 6.735-8.046 9.24l-.04.048c-4.535-2.382-8.106-3.952-10.862-4.663-2.78-.718-5.49-.748-7.275 1.184-.71.764-1.027 1.514-1.233 2.5l-.001.003-.002.01c-.05.24-.123.59-.124.953a3.13 3.13 0 00.184 1.044v.002c.12.354.28.727.603 1.14.251.32.58.634.923.955l.002.002c1.553 1.452 3.974 3.998 5.335 5.603 3.345 3.96 6.693 9.045 10.884 16.6l.003.006c.164.293.333.584.477.823l.005.009c.098.162.292.483.467.687l.007.008h0c.483.559 1.056.882 1.688 1.081l.01.003h0a.6.6 0 01.016.006c.093.03.434.14.83.14.366 0 .697-.095.792-.123l.014-.004c.262-.07.577-.172.898-.353.345-.193.599-.422.8-.636.509-.54.698-1.03.988-1.777l.026-.068c.37-.95 1.127-2.803 1.609-3.936v-.001c5.62-13.234 12.46-24.41 20.626-33.756 1.884-2.155 4.577-4.965 7.781-8.107 2.489-2.438 3.538-3.52 3.925-5.256l.003-.01.007-.031c.029-.131.095-.428.097-.739a3.009 3.009 0 00-.112-.793l-.006-.021c-.212-.826-.622-1.61-1.36-2.226-.7-.583-1.532-.876-2.343-1.045l-.01-.002-.01-.002c-.46-.09-1.149-.193-1.83-.02m-4.725 1.898s0 0 0 0l1.04 1.709-1.041-1.708s0 0 0 0zm4.725-1.898a2.73 2.73 0 00-.055.014l.53 1.929-.495-1.938.023-.006.008-.002-.01.003h-.001z" fill="#767BA3" stroke="#fff" stroke-width="4"/></svg>