<svg width="23" height="19" fill="none" xmlns="http://www.w3.org/2000/svg"><path fill-rule="evenodd" clip-rule="evenodd" d="M13.965.907c-1.707-.684-3.45-.676-5.15.012-.825.33-1.646.66-2.467.991-1.152.463-2.303.927-3.459 1.389C1.182 3.982 0 5.668 0 7.532v3.97a4.607 4.607 0 002.888 4.249h.001l1.873.755c1.338.54 2.685 1.083 4.033 1.61H8.8a8.276 8.276 0 001.791.468h.003l.003.001c1.25.175 2.42-.06 3.479-.488h.002l.002-.002c.78-.318 1.588-.639 2.403-.963 1.175-.466 2.366-.938 3.516-1.423 1.744-.734 2.716-2.21 2.793-4.065v-.002c.02-.508.016-1.044.01-1.532l-.003-.574c0-.225-.002-.44-.003-.65a31.15 31.15 0 01.008-1.336c.031-.983-.34-1.898-.836-2.602-.495-.702-1.204-1.324-2.029-1.647l-.002-.001a370.395 370.395 0 01-4.282-1.711L13.966.908l-.001-.001zm-4.1 2.615c1.034-.419 2.026-.422 3.055-.01l1.665.673c1.437.58 2.88 1.164 4.33 1.73.22.086.517.309.757.65.24.34.332.668.325.894l1.403.045-1.403-.046a38.104 38.104 0 00-.009 1.512l.003.566c0 .242.002.468.004.686.005.454.01.87-.009 1.306-.034.813-.375 1.298-1.077 1.594-1.144.482-2.266.927-3.404 1.378-.816.324-1.64.65-2.485.996-.72.29-1.384.4-2.033.31a5.487 5.487 0 01-1.174-.307 360.045 360.045 0 01-3.98-1.588h-.001c-.63-.255-1.262-.51-1.899-.765a1.8 1.8 0 01-1.126-1.644v-3.97c0-.684.453-1.358 1.125-1.627 1.157-.463 2.314-.928 3.47-1.393l2.46-.989.003-.001z" fill="#5B5B5B"/></svg>