<svg xmlns="http://www.w3.org/2000/svg" xmlns:xlink="http://www.w3.org/1999/xlink" xmlns:svgjs="http://svgjs.com/svgjs" width="74" height="58"><svg width="74" height="58" fill="none" xmlns="http://www.w3.org/2000/svg"><path d="M73.276 29.293c0 2.512.105 5.024 0 7.535-.21 4.92-2.617 8.478-7.118 10.362-7.119 3.035-14.446 5.86-21.67 8.791-3.244 1.36-6.594 1.989-10.153 1.466-1.884-.21-3.664-.733-5.443-1.466-7.119-2.72-14.341-5.651-21.564-8.582A11.744 11.744 0 010 36.514V21.862c0-4.71 3.036-9 7.328-10.78 7.327-2.826 14.55-5.756 21.773-8.687 5.025-1.988 10.05-2.093 15.074 0 7.328 2.93 14.55 5.966 21.878 8.792 3.873 1.465 7.432 6.175 7.223 10.675v7.431zm-2.826 0v-7.222c0-3.767-2.199-7.012-5.653-8.372-7.328-2.93-14.655-5.966-22.088-8.897-3.873-1.57-7.955-1.57-11.829-.104-7.536 2.93-15.073 6.07-22.506 9.105a8.893 8.893 0 00-5.548 8.268c0 4.71.105 9.42 0 14.025-.104 3.663 2.408 7.43 5.967 8.896 7.328 2.826 14.55 5.861 21.774 8.791 3.977 1.57 7.955 1.675 11.933.105a842.39 842.39 0 0022.506-9.105c3.245-1.36 5.13-3.873 5.444-7.431.209-2.721 0-5.338 0-8.059z" fill="#fff"/><path d="M42.919 41.224V42.9h-11.62c-.732 0-.837-.314-.732-.837 0-.524 0-.942.732-.942.628.104 1.257 0 1.99-.105 1.046-.105 1.674-.733 1.674-1.78v-21.35c0-.942-.21-1.36-1.151-1.57-.838-.105-1.675-.21-2.408-.105-.733 0-.733-.418-.733-.941 0-.524.105-.838.733-.838h10.991c.733 0 .733.419.733.838 0 .523.105 1.046-.733.941-.628-.104-1.256 0-1.78 0-1.15 0-1.779.733-1.779 1.884v21.142c0 1.256.524 1.779 1.78 1.884.628.104 1.465.104 2.303.104z" fill="#fff"/></svg><style>@media (prefers-color-scheme:light){:root{filter:contrast(1) brightness(.6)}}</style></svg>