<svg width="19" height="20" fill="none" xmlns="http://www.w3.org/2000/svg"><path d="M13.842 9.291c-1.224 0-2.254 1.045-2.254 2.286s1.03 2.287 2.254 2.287 2.255-1.046 2.255-2.287c.064-1.24-.966-2.286-2.255-2.286zm0 3.07a.789.789 0 01-.773-.784c0-.392.322-.783.773-.783.387 0 .773.326.773.783 0 .392-.322.784-.773.784zm0-6.14c-2.899 0-5.217 2.352-5.217 5.291v.13c0 1.438.837 3.136 2.383 5.03 1.16 1.306 2.255 2.286 2.319 2.286l.45.392.452-.392c.064-.065 1.16-.98 2.319-2.286 1.61-1.894 2.383-3.527 2.383-5.03v-.13c.13-2.94-2.19-5.29-5.089-5.29zm3.736 5.422c0 1.96-2.319 4.507-3.671 5.748-.387-.392-1.03-.98-1.675-1.699-1.353-1.567-2.061-2.939-2.061-3.984v-.13c0-2.09 1.674-3.724 3.671-3.724 2.062 0 3.672 1.699 3.672 3.723v.066h.064zm-7.021 7.707h-6.7c-1.223 0-2.254-1.045-2.254-2.286V8.638l-.322.327a.793.793 0 01-1.095-.066.82.82 0 01.064-1.11L8.947.147a.67.67 0 01.837 0l5.347 4.703c-.451-.066-.838-.13-1.289-.13-.322 0-.58 0-.902.064-.064 0-.193 0-.257-.065L9.59 2.041a.308.308 0 00-.451 0L3.085 7.397v9.798c0 .392.322.783.773.783h5.99c.13 0 .194.066.322.131.258.261.451.523.645.719.257.065.129.522-.258.522z" fill="#fff"/></svg>