<svg width="1439" height="629" fill="none" xmlns="http://www.w3.org/2000/svg"><path d="M32.749 945.705c0 24.747.544 49.696-.181 74.445-1.27 44.22 30.287 91.07 64.383 106.08 65.29 28.61 130.036 58.42 195.144 87.83 44.615 20.09 89.23 19.88 133.845-.4 64.383-29.01 128.766-58.22 193.331-87.22 38.811-17.45 65.471-60.65 65.471-107.31V873.696c0-47.059-26.297-90.264-65.471-107.911-64.021-28.804-127.86-58.216-192.243-86.411-15.416-6.694-32.101-11.562-48.423-14.199-31.013-4.868-60.938 1.42-89.955 14.605-64.021 29.412-128.767 56.998-192.606 87.222-39.9 18.864-61.3 54.767-63.114 103.652-.907 24.949-.181 50.102-.181 75.051z" fill="#fff"/><path d="M1440 958.787H0V0h1440v958.787z" fill="#fff"/><path d="M416.746 695.946c0-19.649-.502-39.46.168-59.11 1.172-35.112-27.953-72.318-59.422-84.236-60.258-22.71-120.014-46.387-180.105-69.741-41.177-15.945-82.353-15.784-123.53.322-59.421 23.032-118.843 46.225-178.431 69.258C-160.395 566.29-185 600.597-185 637.641v115.483c0 37.367 24.271 71.673 60.426 85.686 59.086 22.871 118.006 46.225 177.427 68.613 14.228 5.315 29.627 9.181 44.692 11.274 28.622 3.866 56.241-1.127 83.022-11.596 59.087-23.354 118.843-45.259 177.762-69.258 36.825-14.978 56.576-43.487 58.25-82.303.837-19.811.167-39.783.167-59.594zm-222.61-326.688c0 10.635.269 21.357-.09 31.991-.628 19.003 14.998 39.139 31.882 45.589 32.332 12.291 64.394 25.104 96.635 37.744 22.093 8.63 44.186 8.542 66.279-.174 31.883-12.466 63.765-25.018 95.737-37.483C503.798 439.429 517 420.862 517 400.813v-62.499c0-20.223-13.022-38.79-32.421-46.374-31.703-12.378-63.316-25.017-95.198-37.133-7.634-2.877-15.896-4.969-23.979-6.102-15.357-2.092-30.176.61-44.545 6.276-31.703 12.639-63.765 24.494-95.378 37.482-19.758 8.107-30.355 23.536-31.253 44.543-.449 10.722-.09 21.531-.09 32.252zm734.157-81.775c0 22.757.579 45.701-.194 68.458-1.352 40.664 32.272 83.753 68.602 97.556 69.569 26.301 138.559 53.721 207.929 80.769 47.54 18.466 95.08 18.28 142.61-.373 68.6-26.674 137.2-53.535 206-80.209 41.35-16.042 69.76-55.774 69.76-98.676V221.264c0-43.275-28.02-83.007-69.76-99.235-68.22-26.488-136.24-53.535-204.84-79.463-16.42-6.156-34.2-10.633-51.59-13.057-33.05-4.477-64.93 1.305-95.85 13.43-68.22 27.047-137.2 52.416-205.226 80.209-42.513 17.347-65.316 50.364-67.248 95.318-.966 22.944-.193 46.074-.193 69.017z" fill="#D1D1D1" fill-opacity=".25"/></svg>