<svg viewBox="0 0 255 60" xmlns="http://www.w3.org/2000/svg"><path d="M248.93 2.079c-.314-.105-.524-.21-.733-.21-3.559-1.465-7.014-1.151-10.259.838-2.407 1.465-3.245 3.767-3.14 6.488.104 2.512 1.465 4.292 3.664 5.234 2.931 1.255 5.966 2.197 8.897 3.349 1.466.523 2.827 1.465 3.455 3.035s.314 3.244-.838 4.605c-2.303 2.616-5.234 3.244-8.583 2.721-2.827-.523-4.606-2.617-6.386-4.605-.209-.314-.419-.733-.942-.314-.419.314-.733.628-.314 1.256.942 1.57 1.884 3.244 2.826 4.814.628 1.152.942 1.36 2.408.942 0-.314-.105-.732-.105-1.256.838.419 1.57.733 2.303 1.047 2.513.837 5.025.628 7.537 0 1.361-.314 2.722-.837 3.769-1.884 1.675-1.57 2.512-3.35 2.512-5.756 0-2.617-1.152-4.5-3.14-5.966-1.466-1.151-3.141-1.78-4.92-2.198-2.094-.523-4.188-1.151-6.072-2.302-2.512-1.36-3.036-3.768-1.361-6.07 2.094-2.931 6.7-3.768 9.736-1.57 1.256.941 2.407 2.197 3.559 3.244.209.21.314.628.732.21.314-.315.838-.42.419-1.047-1.151-1.884-2.198-3.768-3.245-5.652-.105-.21-.314-.314-.419-.419h-1.674c0 .419.104.838.314 1.466zM181.1 1.45c-1.047-.209-1.989-.523-3.036-.627-3.977-.628-7.746-.21-11.096 2.512-3.663 2.93-5.652 6.698-5.757 11.408 0 2.511.523 4.919 1.57 7.221 1.361 3.245 3.559 5.861 6.804 7.222 3.141 1.36 6.281 1.256 9.526.523 3.141-.733 5.548-2.512 7.537-5.024.419-.628.105-.837-.314-1.151-.419-.419-.628-.105-.837.21-.524.627-1.047 1.255-1.57 1.674-1.989 1.674-4.397 2.198-7.014 2.407-3.036.314-5.653-.523-7.746-2.826-2.722-2.826-3.769-6.28-3.978-10.152-.314-6.489 5.757-12.769 11.829-12.14 2.303.209 4.396.523 6.071 2.302.838.837 1.675 1.57 2.512 2.407 1.047-.628 1.047-.628.314-1.675l-2.826-4.395c-.209-.419-1.675-.628-1.989-.314.105 0 0 .209 0 .418zm-51.4 11.618c.105.105.105.21.21.21h2.093c.524 0 .733.104.733.732-.105.733 0 1.465 0 2.198V26.36c0 1.046-.523 1.57-1.466 1.57-.209 0-.418.104-.732.104-.942-.104-.628.628-.628 1.047-.105.628.209.628.732.628h8.27c.314-1.465.209-1.57-1.256-1.675h-.105c-.942-.104-1.361-.523-1.465-1.465v-1.78c.104-2.616.104-5.232.314-7.849.314-2.72 2.093-4.395 4.815-4.814 2.094-.314 3.768.523 4.606 2.512.628 1.465.837 3.14.942 4.71v7.116c0 .942-.523 1.466-1.465 1.57-.419 0-.943.105-1.466.105v1.047c-.105.523.105.628.628.628h7.851c.209 0 .523-.105.523-.21.105-.418.105-.942 0-1.256 0-.104-.523-.104-.732-.209h-.314c-1.256 0-1.78-.419-1.78-1.78 0-3.034 0-6.07-.209-9.105-.105-1.884-.628-3.663-1.989-5.128-1.675-1.884-3.873-2.303-6.176-2.093-1.989.104-3.769.732-5.025 2.512-.105.209-.314.418-.523.837v-3.14c0-.21-.21-.523-.314-.523-.628.104-1.256 0-1.675.314a44.185 44.185 0 00-3.664 2.407c-.419 0-.523.314-.733.628zm-8.27 16.536v-.628c0-1.047.104-.942-.942-.942h-1.675c-1.152-.105-1.675-.628-1.675-1.78V5.01c0-1.151.733-1.884 1.884-1.884h1.78c.628 0 .732-.314.628-.733 0-.418.209-.942-.628-.942h-11.096c-.733 0-.629.524-.629.942 0 .524 0 .838.733.838.838 0 1.675 0 2.408.104.942.21 1.256.628 1.256 1.57v21.351c0 .942-.523 1.57-1.57 1.675-.628.104-1.361.104-1.989.104-.838-.104-.733.419-.733.942 0 .628.209.838.838.733h10.886s.21 0 .524-.105zm72.33 24.91h61.029v-1.57H193.76v1.57zm-47.94-5.548h.314c1.152 0 1.256.105 1.256 1.256v7.012c0 .942-.209 1.151-1.151 1.256h-.524v.628h4.188c0-.628 0-.628-.524-.628-.837-.105-1.047-.314-1.151-1.151v-5.547c0-.105 0-.314.104-.523 1.466 2.616 2.931 5.128 4.397 7.744 1.465-2.825 2.826-5.547 4.292-8.268.209.21.209.314.209.524v5.651c0 1.465-.105 1.57-1.57 1.675 0 0-.105 0-.105.104-.104.419 0 .628.419.628h4.082c.105 0 .105 0 .21-.104v-.314c0-.105 0-.21-.105-.314-1.465-.105-1.57-.21-1.57-1.675v-6.593c0-1.047.105-1.152 1.151-1.152.524 0 .629-.209.419-.732h-2.512c-.419 0-.628.104-.838.523-.942 1.884-1.884 3.663-2.721 5.442-.419.733-.733 1.466-1.152 2.303-.209-.21-.314-.419-.314-.523-1.151-1.989-2.407-3.977-3.35-6.07-.628-1.466-1.57-1.99-3.035-1.675h-.524c.105.104.105.314.105.523zm-34.65 5.129h5.548v2.826c0 1.36.209 1.674-1.466 1.57 0 0-.104 0-.209.104v.524h4.711c0-.628 0-.628-.524-.628-1.047 0-1.047 0-1.047-1.152v-7.221c0-1.047.105-1.151 1.152-1.151.523 0 .628-.21.419-.628h-4.711v.628c.314 0 .628-.105.942 0 .314.104.628.314.628.523.105 1.256 0 2.407 0 3.663h-5.443c0-.105-.105-.105-.105-.21v-2.511c0-1.57 0-1.57 1.466-1.675 0 0 .104 0 .209-.104v-.524h-4.711c-.104.628-.104.628.524.628.942 0 1.047.105 1.047 1.152v6.802c0 1.57 0 1.57-1.466 1.675 0 0-.105 0-.105.105-.104.523.105.628.524.628h3.664c.523 0 .732-.105.523-.733-.314 0-.628.105-.942 0-.209-.105-.628-.419-.628-.628v-3.663zm56.63 5.024h9.316v-2.303h-.628v.314c0 1.152-.209 1.256-1.36 1.256h-3.246c-.418 0-.837-.104-.837-.628v-4.186c1.047 0 2.094-.105 3.036 0 .314 0 .523.523.732.837.105.21.001.419.105.733h.628v-3.977h-.628c0 .314 0 .628-.105.732-.209.314-.418.733-.628.733-1.046.105-2.093 0-3.14 0v-3.244c0-.419.314-.733.733-.733h3.454c.628 0 .942.314.942.942v.837c.314-.21.628-.314.628-.523.105-.628 0-1.36 0-2.093H167.8c-.209.523 0 .628.419.628.942 0 1.151.209 1.151 1.15v6.594c0 1.675 0 1.675-1.675 1.884.21.628.21.838.105 1.047zM73.276 30.756c0 2.512.105 5.024 0 7.535-.21 4.92-2.617 8.478-7.118 10.362-7.119 3.035-14.446 5.86-21.67 8.791-3.244 1.36-6.594 1.988-10.153 1.465-1.885-.21-3.664-.732-5.444-1.465-7.118-2.721-14.34-5.652-21.564-8.582A11.745 11.745 0 010 37.977V23.325c0-4.71 3.035-9 7.327-10.78C14.655 9.719 21.878 6.789 29.1 3.858c5.025-1.988 10.05-2.093 15.074 0 7.328 2.93 14.55 5.966 21.878 8.792 3.873 1.465 7.433 6.174 7.223 10.675v7.43zm-2.826 0v-7.221c0-3.768-2.199-7.013-5.653-8.373-7.328-2.93-14.655-5.966-22.087-8.896-3.873-1.57-7.956-1.57-11.83-.105-7.536 2.93-15.073 6.07-22.505 9.105a8.893 8.893 0 00-5.548 8.268c0 4.71.105 9.42 0 14.024-.105 3.664 2.407 7.431 5.967 8.897 7.327 2.825 14.55 5.86 21.773 8.791 3.977 1.57 7.955 1.675 11.934.105a841.973 841.973 0 0022.506-9.106c3.245-1.36 5.129-3.872 5.443-7.43.21-2.722 0-5.338 0-8.06zm139.96-.314c-7.851 0-14.655-6.803-14.655-14.757S202.35.719 210.41.614c8.165 0 14.76 6.698 14.865 14.757 0 8.477-7.118 15.28-14.865 15.071zm-.418-27.63c-1.152-.105-2.303 0-3.455.628-1.57.837-2.721 2.198-3.768 3.663-1.884 2.826-2.513 5.966-2.513 9.315.105 3.663 1.257 6.907 3.978 9.524 3.455 3.35 9.631 3.558 12.981-.628 1.674-2.093 2.617-4.5 2.931-7.117.418-2.93.209-5.86-.943-8.687-1.046-3.244-4.501-7.117-9.211-6.698z" fill="#fff"/><path d="M248.93 2.079c-.21-.628-.314-.942-.419-1.466h1.675c.209 0 .314.21.419.419 1.046 1.884 2.198 3.768 3.245 5.652.418.628-.21.837-.419 1.046-.419.419-.523 0-.733-.209-1.151-1.151-2.198-2.302-3.559-3.244-3.036-2.198-7.642-1.361-9.735 1.57-1.675 2.302-1.152 4.71 1.361 6.07 1.884 1.046 3.978 1.674 6.071 2.302 1.78.419 3.455 1.047 4.92 2.198 1.989 1.465 3.14 3.35 3.14 5.966 0 2.407-.837 4.186-2.512 5.756-1.047 1.047-2.407 1.57-3.768 1.884-2.513.628-5.025.733-7.537 0-.733-.21-1.466-.628-2.303-1.047 0 .419.104.838.104 1.256-1.465.314-1.779.21-2.407-.942-.942-1.57-1.78-3.244-2.827-4.814-.418-.628-.104-.942.315-1.256.523-.419.628.105.942.314 1.884 1.884 3.663 4.082 6.385 4.605 3.245.628 6.281-.105 8.584-2.721 1.151-1.36 1.465-2.93.837-4.605-.523-1.57-1.884-2.407-3.454-3.035-2.931-1.152-5.967-2.093-8.898-3.35-2.198-.941-3.559-2.72-3.664-5.232-.104-2.722.733-5.024 3.141-6.49 3.245-1.988 6.699-2.302 10.258-.837.21 0 .419.105.838.21zM181.1 1.45V.929c.314-.314 1.78 0 1.989.313l2.826 4.396c.733 1.047.733 1.047-.314 1.675-.837-.838-1.779-1.57-2.512-2.407-1.675-1.78-3.873-2.094-6.071-2.303-6.072-.523-12.143 5.652-11.829 12.141.209 3.872 1.256 7.326 3.978 10.152 2.093 2.198 4.71 3.035 7.746 2.826 2.512-.21 4.92-.733 7.014-2.407.628-.524 1.151-1.152 1.57-1.675.314-.314.418-.628.837-.21.314.315.733.524.314 1.152-1.884 2.617-4.396 4.291-7.537 5.024-3.245.837-6.385.837-9.526-.524-3.349-1.465-5.443-3.977-6.804-7.221-.942-2.303-1.57-4.71-1.57-7.222 0-4.71 2.094-8.477 5.757-11.408C170.213.51 173.982.09 178.064.718c1.047.21 1.989.524 3.036.733zm-51.4 11.618c.21-.314.314-.628.524-.837a43.994 43.994 0 013.664-2.408c.523-.313 1.151-.313 1.674-.313.105 0 .315.313.315.523v3.14c.209-.419.418-.628.523-.838 1.151-1.779 3.036-2.407 5.025-2.512 2.302-.104 4.501.314 6.176 2.094 1.256 1.465 1.884 3.244 1.989 5.128.104 3.035.104 6.07.209 9.105 0 1.256.419 1.78 1.779 1.78h.315c.314.104.732.104.732.21a2.54 2.54 0 010 1.255c0 .105-.314.21-.523.21h-7.851c-.524 0-.628-.105-.628-.629V27.93c.523 0 .942-.105 1.465-.105.942-.105 1.466-.628 1.466-1.57v-7.117c0-1.57-.21-3.244-.942-4.71-.838-1.988-2.513-2.825-4.606-2.511-2.722.418-4.501 2.093-4.815 4.814-.21 2.617-.21 5.233-.314 7.85v1.779c0 .942.523 1.36 1.465 1.465h.105c1.465 0 1.57.105 1.256 1.675h-8.27c-.419 0-.837 0-.733-.628.105-.419-.314-1.152.628-1.047.21 0 .419 0 .733-.105 1.047-.104 1.466-.523 1.466-1.57V13.801c0-.628-.21-.733-.733-.733H129.7c.105.105.105.21 0 0zm-8.27 16.536h-11.62c-.628 0-.837-.105-.837-.733 0-.523-.105-1.046.732-.942.629.105 1.361 0 1.989-.104.942-.105 1.571-.733 1.571-1.675V4.8c0-.943-.315-1.361-1.257-1.57-.837-.105-1.675-.21-2.407-.105-.628 0-.733-.314-.733-.838 0-.418-.105-.942.628-.942h11.096c.838 0 .628.524.628.942 0 .524 0 .838-.628.733h-1.779c-1.152 0-1.885.733-1.885 1.884V26.15c0 1.151.524 1.674 1.675 1.78h1.675c1.152 0 .942-.106.942.941.21.314.21.523.21.733zm72.33 24.91v-1.57h61.029v1.57H193.76zm-47.94-5.548v-.628h.523c1.466-.314 2.408.314 3.036 1.675.942 2.093 2.198 4.081 3.35 6.07.104.21.209.314.314.523.418-.837.837-1.57 1.151-2.302.942-1.78 1.884-3.663 2.722-5.443.209-.314.419-.523.837-.523h2.513c.209.523.104.733-.419.733-1.047 0-1.152.104-1.152 1.15v6.594c0 1.466.105 1.57 1.571 1.675 0 .105.104.21.104.314v.314c-.104 0-.104.105-.209.105h-4.083c-.418 0-.628-.21-.418-.628l.104-.105c1.466-.105 1.571-.21 1.571-1.675v-5.651c0-.105 0-.314-.21-.523-1.361 2.72-2.826 5.442-4.292 8.268-1.465-2.617-2.931-5.129-4.396-7.745 0 .314-.105.418-.105.523v5.547c0 .837.21 1.151 1.152 1.151.523 0 .523 0 .523.628h-4.187v-.628h.523c.942-.104 1.152-.314 1.152-1.256v-7.012c0-1.151-.105-1.256-1.256-1.256-.105.105-.21.105-.419.105zm-34.65 5.129v3.768c0 .21.314.523.628.628.314.104.628 0 .942 0 .209.523 0 .732-.523.732h-3.664c-.419 0-.628-.104-.524-.628l.105-.104c1.466-.105 1.466-.105 1.466-1.675v-6.803c0-.942-.105-1.046-1.047-1.151-.628 0-.628 0-.524-.628h4.711v.523c-.105 0-.105.105-.209.105-1.466.105-1.466.105-1.466 1.674v2.512s0 .105.105.21h5.443v-3.663c0-.21-.419-.419-.628-.524-.314-.104-.628 0-.942 0v-.628h4.711c.104.419.104.628-.419.628-1.047 0-1.152.105-1.152 1.152v7.221c0 1.047 0 1.047 1.047 1.151.524 0 .524 0 .524.628h-4.711V58.7c.105 0 .105-.105.209-.105 1.675 0 1.466-.314 1.466-1.57V54.2c-1.78-.105-3.559-.105-5.548-.105zm21.77 5.442c-3.035 0-5.652-2.512-5.757-5.652 0-3.14 2.512-5.86 5.653-5.86 3.14 0 5.757 2.511 5.757 5.651.105 3.244-2.408 5.756-5.653 5.861zm-3.873-5.652c0 1.361.419 2.722 1.57 3.768 1.361 1.256 3.35 1.256 4.711 0 1.989-1.988 1.884-6.28-.314-8.059-1.465-1.256-3.35-1.046-4.606.314-.942 1.152-1.256 2.512-1.361 3.977zm38.733 5.234v-.628c1.675-.21 1.675-.21 1.675-1.884v-6.593c0-.942-.209-1.152-1.152-1.152-.523 0-.628-.21-.418-.628h9.002v2.093c0 .105-.314.315-.628.524v-.837c0-.628-.419-.942-.942-.942h-3.454a.715.715 0 00-.733.732v3.245h3.14c.21 0 .524-.419.628-.733.105-.21 0-.523.105-.733h.628v3.978h-.628c0-.314 0-.524-.105-.733-.209-.314-.523-.837-.733-.837-.942-.105-1.988 0-3.035 0v4.186c0 .419.314.628.837.628h3.245c1.152 0 1.256-.21 1.361-1.256v-.314h.628v2.303c-3.14-.419-6.176-.419-9.421-.419zM42.919 42.687v1.675h-11.62c-.733 0-.837-.314-.733-.838 0-.523 0-.942.733-.942.628.105 1.256 0 1.99-.104 1.046-.105 1.674-.733 1.674-1.78v-21.35c0-.942-.21-1.361-1.151-1.57-.838-.105-1.675-.21-2.408-.105-.733 0-.733-.419-.733-.942s.105-.837.733-.837h10.99c.734 0 .734.418.734.837 0 .523.104 1.047-.733.942-.628-.105-1.256 0-1.78 0-1.151 0-1.78.733-1.78 1.884v21.14c0 1.257.524 1.78 1.78 1.885.628.104 1.466.104 2.303.104z" fill="#fff"/></svg>