<svg width="24" height="29" fill="none" xmlns="http://www.w3.org/2000/svg"><g clip-path="url(#clip0_457_73)" fill-rule="evenodd" clip-rule="evenodd"><path d="M8.379 20.15c.395 0 7.456-7.544 7.456-11.662a7.456 7.456 0 00-14.913 0c0 4.118 7.062 11.662 7.457 11.662zm0-7.933a3.78 3.78 0 100-7.56 3.78 3.78 0 000 7.56z" fill="#3C3C3C"/><path d="M.922 8.488c0 4.118 7.062 11.662 7.457 11.662v-7.933a3.78 3.78 0 010-7.56V1.03A7.456 7.456 0 00.922 8.488z" fill="#5B5B5B"/></g><defs><clipPath id="clip0_457_73"><path fill="#fff" transform="translate(.817 .836)" d="M0 0h16v20H0z"/></clipPath></defs></svg>