<svg width="43" height="36" fill="none" xmlns="http://www.w3.org/2000/svg"><path fill-rule="evenodd" clip-rule="evenodd" d="M16.57 1.728c3.2-1.294 6.477-1.309 9.684-.023l.003.001 3.173 1.28a677.91 677.91 0 008.05 3.218l.005.002c1.55.607 2.883 1.776 3.814 3.097.931 1.322 1.63 3.043 1.571 4.89v.001a61.638 61.638 0 00-.015 2.51v.002c.003.393.006.798.006 1.222 0 .338.004.7.007 1.078.01.919.02 1.925-.02 2.882v.002c-.145 3.49-1.972 6.262-5.25 7.642-2.163.912-4.403 1.8-6.61 2.677a466.91 466.91 0 00-4.517 1.81l-.005.002-.005.002c-1.99.805-4.188 1.246-6.54.917h-.005l-.005-.002a15.597 15.597 0 01-3.368-.879l-.007-.003a660.914 660.914 0 01-7.581-3.025c-1.179-.476-2.354-.95-3.523-1.419C2.186 28.31 0 25.134 0 21.624V14.16c0-3.504 2.222-6.672 5.432-7.957 2.173-.87 4.337-1.74 6.503-2.611 1.543-.621 3.087-1.242 4.636-1.863zm7.719 4.875c-1.934-.775-3.799-.77-5.742.018l-.008.003c-1.538.617-3.08 1.237-4.625 1.859-2.171.873-4.347 1.749-6.521 2.618-1.264.506-2.116 1.773-2.116 3.058v7.465c0 1.321.845 2.58 2.118 3.09 1.196.48 2.384.959 3.569 1.437l.002.001c2.496 1.008 4.977 2.01 7.482 2.986.698.27 1.464.47 2.208.576 1.22.17 2.47-.035 3.82-.58 1.59-.651 3.14-1.265 4.674-1.874a319.231 319.231 0 006.398-2.59l.001-.001c1.32-.556 1.961-1.469 2.026-2.996.033-.82.025-1.603.016-2.456-.004-.41-.008-.835-.008-1.289 0-.339-.003-.696-.005-1.064v-.001a71.254 71.254 0 01.017-2.843 1.87 1.87 0 00-.004-.165c-.03-.41-.213-.953-.607-1.513-.452-.64-1.01-1.06-1.425-1.223a706.66 706.66 0 01-8.138-3.252h-.002c-1.046-.424-2.089-.846-3.13-1.264z" fill="#5B5B5B"/><path d="M18.547 6.62c1.943-.786 3.808-.792 5.742-.017 1.04.418 2.084.84 3.13 1.263h.001c2.7 1.093 5.415 2.19 8.14 3.253.414.163.972.582 1.424 1.223.394.56.576 1.102.607 1.512.004.059.005.114.004.166a71.61 71.61 0 00-.018 2.843c.003.369.006.726.006 1.065 0 .453.004.88.008 1.289.009.853.017 1.637-.017 2.455-.064 1.528-.704 2.44-2.025 2.997h-.001a320.1 320.1 0 01-6.399 2.591 464.869 464.869 0 00-4.672 1.873c-1.352.546-2.601.75-3.822.581a10.33 10.33 0 01-2.207-.576 676.089 676.089 0 01-7.482-2.986l-.003-.001c-1.184-.478-2.372-.958-3.568-1.437-1.273-.51-2.118-1.769-2.118-3.09v-7.465c0-1.285.852-2.552 2.116-3.058 2.174-.87 4.35-1.745 6.521-2.619l4.625-1.858.008-.004z" fill="#767BA3"/></svg>