<svg xmlns="http://www.w3.org/2000/svg"><symbol id="Logo_inCOS" viewBox="0 0 255 60"><path d="M248.93 2.079c-.314-.105-.524-.21-.733-.21-3.559-1.465-7.014-1.151-10.259.838-2.407 1.465-3.245 3.767-3.14 6.488.104 2.512 1.465 4.292 3.664 5.234 2.931 1.255 5.966 2.197 8.897 3.349 1.466.523 2.827 1.465 3.455 3.035s.314 3.244-.838 4.605c-2.303 2.616-5.234 3.244-8.583 2.721-2.827-.523-4.606-2.617-6.386-4.605-.209-.314-.419-.733-.942-.314-.419.314-.733.628-.314 1.256.942 1.57 1.884 3.244 2.826 4.814.628 1.152.942 1.36 2.408.942 0-.314-.105-.732-.105-1.256.838.419 1.57.733 2.303 1.047 2.513.837 5.025.628 7.537 0 1.361-.314 2.722-.837 3.769-1.884 1.675-1.57 2.512-3.35 2.512-5.756 0-2.617-1.152-4.5-3.14-5.966-1.466-1.151-3.141-1.78-4.92-2.198-2.094-.523-4.188-1.151-6.072-2.302-2.512-1.36-3.036-3.768-1.361-6.07 2.094-2.931 6.7-3.768 9.736-1.57 1.256.941 2.407 2.197 3.559 3.244.209.21.314.628.732.21.314-.315.838-.42.419-1.047-1.151-1.884-2.198-3.768-3.245-5.652-.105-.21-.314-.314-.419-.419h-1.674c0 .419.104.838.314 1.466zM181.1 1.45c-1.047-.209-1.989-.523-3.036-.627-3.977-.628-7.746-.21-11.096 2.512-3.663 2.93-5.652 6.698-5.757 11.408 0 2.511.523 4.919 1.57 7.221 1.361 3.245 3.559 5.861 6.804 7.222 3.141 1.36 6.281 1.256 9.526.523 3.141-.733 5.548-2.512 7.537-5.024.419-.628.105-.837-.314-1.151-.419-.419-.628-.105-.837.21-.524.627-1.047 1.255-1.57 1.674-1.989 1.674-4.397 2.198-7.014 2.407-3.036.314-5.653-.523-7.746-2.826-2.722-2.826-3.769-6.28-3.978-10.152-.314-6.489 5.757-12.769 11.829-12.14 2.303.209 4.396.523 6.071 2.302.838.837 1.675 1.57 2.512 2.407 1.047-.628 1.047-.628.314-1.675l-2.826-4.395c-.209-.419-1.675-.628-1.989-.314.105 0 0 .209 0 .418zm-51.4 11.618c.105.105.105.21.21.21h2.093c.524 0 .733.104.733.732-.105.733 0 1.465 0 2.198V26.36c0 1.046-.523 1.57-1.466 1.57-.209 0-.418.104-.732.104-.942-.104-.628.628-.628 1.047-.105.628.209.628.732.628h8.27c.314-1.465.209-1.57-1.256-1.675h-.105c-.942-.104-1.361-.523-1.465-1.465v-1.78c.104-2.616.104-5.232.314-7.849.314-2.72 2.093-4.395 4.815-4.814 2.094-.314 3.768.523 4.606 2.512.628 1.465.837 3.14.942 4.71v7.116c0 .942-.523 1.466-1.465 1.57-.419 0-.943.105-1.466.105v1.047c-.105.523.105.628.628.628h7.851c.209 0 .523-.105.523-.21.105-.418.105-.942 0-1.256 0-.104-.523-.104-.732-.209h-.314c-1.256 0-1.78-.419-1.78-1.78 0-3.034 0-6.07-.209-9.105-.105-1.884-.628-3.663-1.989-5.128-1.675-1.884-3.873-2.303-6.176-2.093-1.989.104-3.769.732-5.025 2.512-.105.209-.314.418-.523.837v-3.14c0-.21-.21-.523-.314-.523-.628.104-1.256 0-1.675.314a44.185 44.185 0 00-3.664 2.407c-.419 0-.523.314-.733.628zm-8.27 16.536v-.628c0-1.047.104-.942-.942-.942h-1.675c-1.152-.105-1.675-.628-1.675-1.78V5.01c0-1.151.733-1.884 1.884-1.884h1.78c.628 0 .732-.314.628-.733 0-.418.209-.942-.628-.942h-11.096c-.733 0-.629.524-.629.942 0 .524 0 .838.733.838.838 0 1.675 0 2.408.104.942.21 1.256.628 1.256 1.57v21.351c0 .942-.523 1.57-1.57 1.675-.628.104-1.361.104-1.989.104-.838-.104-.733.419-.733.942 0 .628.209.838.838.733h10.886s.21 0 .524-.105zm72.33 24.91h61.029v-1.57H193.76v1.57zm-47.94-5.548h.314c1.152 0 1.256.105 1.256 1.256v7.012c0 .942-.209 1.151-1.151 1.256h-.524v.628h4.188c0-.628 0-.628-.524-.628-.837-.105-1.047-.314-1.151-1.151v-5.547c0-.105 0-.314.104-.523 1.466 2.616 2.931 5.128 4.397 7.744 1.465-2.825 2.826-5.547 4.292-8.268.209.21.209.314.209.524v5.651c0 1.465-.105 1.57-1.57 1.675 0 0-.105 0-.105.104-.104.419 0 .628.419.628h4.082c.105 0 .105 0 .21-.104v-.314c0-.105 0-.21-.105-.314-1.465-.105-1.57-.21-1.57-1.675v-6.593c0-1.047.105-1.152 1.151-1.152.524 0 .629-.209.419-.732h-2.512c-.419 0-.628.104-.838.523-.942 1.884-1.884 3.663-2.721 5.442-.419.733-.733 1.466-1.152 2.303-.209-.21-.314-.419-.314-.523-1.151-1.989-2.407-3.977-3.35-6.07-.628-1.466-1.57-1.99-3.035-1.675h-.524c.105.104.105.314.105.523zm-34.65 5.129h5.548v2.826c0 1.36.209 1.674-1.466 1.57 0 0-.104 0-.209.104v.524h4.711c0-.628 0-.628-.524-.628-1.047 0-1.047 0-1.047-1.152v-7.221c0-1.047.105-1.151 1.152-1.151.523 0 .628-.21.419-.628h-4.711v.628c.314 0 .628-.105.942 0 .314.104.628.314.628.523.105 1.256 0 2.407 0 3.663h-5.443c0-.105-.105-.105-.105-.21v-2.511c0-1.57 0-1.57 1.466-1.675 0 0 .104 0 .209-.104v-.524h-4.711c-.104.628-.104.628.524.628.942 0 1.047.105 1.047 1.152v6.802c0 1.57 0 1.57-1.466 1.675 0 0-.105 0-.105.105-.104.523.105.628.524.628h3.664c.523 0 .732-.105.523-.733-.314 0-.628.105-.942 0-.209-.105-.628-.419-.628-.628v-3.663zm56.63 5.024h9.316v-2.303h-.628v.314c0 1.152-.209 1.256-1.36 1.256h-3.246c-.418 0-.837-.104-.837-.628v-4.186c1.047 0 2.094-.105 3.036 0 .314 0 .523.523.732.837.105.21.001.419.105.733h.628v-3.977h-.628c0 .314 0 .628-.105.732-.209.314-.418.733-.628.733-1.046.105-2.093 0-3.14 0v-3.244c0-.419.314-.733.733-.733h3.454c.628 0 .942.314.942.942v.837c.314-.21.628-.314.628-.523.105-.628 0-1.36 0-2.093H167.8c-.209.523 0 .628.419.628.942 0 1.151.209 1.151 1.15v6.594c0 1.675 0 1.675-1.675 1.884.21.628.21.838.105 1.047zM73.276 30.756c0 2.512.105 5.024 0 7.535-.21 4.92-2.617 8.478-7.118 10.362-7.119 3.035-14.446 5.86-21.67 8.791-3.244 1.36-6.594 1.988-10.153 1.465-1.885-.21-3.664-.732-5.444-1.465-7.118-2.721-14.34-5.652-21.564-8.582A11.745 11.745 0 010 37.977V23.325c0-4.71 3.035-9 7.327-10.78C14.655 9.719 21.878 6.789 29.1 3.858c5.025-1.988 10.05-2.093 15.074 0 7.328 2.93 14.55 5.966 21.878 8.792 3.873 1.465 7.433 6.174 7.223 10.675v7.43zm-2.826 0v-7.221c0-3.768-2.199-7.013-5.653-8.373-7.328-2.93-14.655-5.966-22.087-8.896-3.873-1.57-7.956-1.57-11.83-.105-7.536 2.93-15.073 6.07-22.505 9.105a8.893 8.893 0 00-5.548 8.268c0 4.71.105 9.42 0 14.024-.105 3.664 2.407 7.431 5.967 8.897 7.327 2.825 14.55 5.86 21.773 8.791 3.977 1.57 7.955 1.675 11.934.105a841.973 841.973 0 0022.506-9.106c3.245-1.36 5.129-3.872 5.443-7.43.21-2.722 0-5.338 0-8.06zm139.96-.314c-7.851 0-14.655-6.803-14.655-14.757S202.35.719 210.41.614c8.165 0 14.76 6.698 14.865 14.757 0 8.477-7.118 15.28-14.865 15.071zm-.418-27.63c-1.152-.105-2.303 0-3.455.628-1.57.837-2.721 2.198-3.768 3.663-1.884 2.826-2.513 5.966-2.513 9.315.105 3.663 1.257 6.907 3.978 9.524 3.455 3.35 9.631 3.558 12.981-.628 1.674-2.093 2.617-4.5 2.931-7.117.418-2.93.209-5.86-.943-8.687-1.046-3.244-4.501-7.117-9.211-6.698z"/><path d="M248.93 2.079c-.21-.628-.314-.942-.419-1.466h1.675c.209 0 .314.21.419.419 1.046 1.884 2.198 3.768 3.245 5.652.418.628-.21.837-.419 1.046-.419.419-.523 0-.733-.209-1.151-1.151-2.198-2.302-3.559-3.244-3.036-2.198-7.642-1.361-9.735 1.57-1.675 2.302-1.152 4.71 1.361 6.07 1.884 1.046 3.978 1.674 6.071 2.302 1.78.419 3.455 1.047 4.92 2.198 1.989 1.465 3.14 3.35 3.14 5.966 0 2.407-.837 4.186-2.512 5.756-1.047 1.047-2.407 1.57-3.768 1.884-2.513.628-5.025.733-7.537 0-.733-.21-1.466-.628-2.303-1.047 0 .419.104.838.104 1.256-1.465.314-1.779.21-2.407-.942-.942-1.57-1.78-3.244-2.827-4.814-.418-.628-.104-.942.315-1.256.523-.419.628.105.942.314 1.884 1.884 3.663 4.082 6.385 4.605 3.245.628 6.281-.105 8.584-2.721 1.151-1.36 1.465-2.93.837-4.605-.523-1.57-1.884-2.407-3.454-3.035-2.931-1.152-5.967-2.093-8.898-3.35-2.198-.941-3.559-2.72-3.664-5.232-.104-2.722.733-5.024 3.141-6.49 3.245-1.988 6.699-2.302 10.258-.837.21 0 .419.105.838.21zM181.1 1.45V.929c.314-.314 1.78 0 1.989.313l2.826 4.396c.733 1.047.733 1.047-.314 1.675-.837-.838-1.779-1.57-2.512-2.407-1.675-1.78-3.873-2.094-6.071-2.303-6.072-.523-12.143 5.652-11.829 12.141.209 3.872 1.256 7.326 3.978 10.152 2.093 2.198 4.71 3.035 7.746 2.826 2.512-.21 4.92-.733 7.014-2.407.628-.524 1.151-1.152 1.57-1.675.314-.314.418-.628.837-.21.314.315.733.524.314 1.152-1.884 2.617-4.396 4.291-7.537 5.024-3.245.837-6.385.837-9.526-.524-3.349-1.465-5.443-3.977-6.804-7.221-.942-2.303-1.57-4.71-1.57-7.222 0-4.71 2.094-8.477 5.757-11.408C170.213.51 173.982.09 178.064.718c1.047.21 1.989.524 3.036.733zm-51.4 11.618c.21-.314.314-.628.524-.837a43.994 43.994 0 013.664-2.408c.523-.313 1.151-.313 1.674-.313.105 0 .315.313.315.523v3.14c.209-.419.418-.628.523-.838 1.151-1.779 3.036-2.407 5.025-2.512 2.302-.104 4.501.314 6.176 2.094 1.256 1.465 1.884 3.244 1.989 5.128.104 3.035.104 6.07.209 9.105 0 1.256.419 1.78 1.779 1.78h.315c.314.104.732.104.732.21a2.54 2.54 0 010 1.255c0 .105-.314.21-.523.21h-7.851c-.524 0-.628-.105-.628-.629V27.93c.523 0 .942-.105 1.465-.105.942-.105 1.466-.628 1.466-1.57v-7.117c0-1.57-.21-3.244-.942-4.71-.838-1.988-2.513-2.825-4.606-2.511-2.722.418-4.501 2.093-4.815 4.814-.21 2.617-.21 5.233-.314 7.85v1.779c0 .942.523 1.36 1.465 1.465h.105c1.465 0 1.57.105 1.256 1.675h-8.27c-.419 0-.837 0-.733-.628.105-.419-.314-1.152.628-1.047.21 0 .419 0 .733-.105 1.047-.104 1.466-.523 1.466-1.57V13.801c0-.628-.21-.733-.733-.733H129.7c.105.105.105.21 0 0zm-8.27 16.536h-11.62c-.628 0-.837-.105-.837-.733 0-.523-.105-1.046.732-.942.629.105 1.361 0 1.989-.104.942-.105 1.571-.733 1.571-1.675V4.8c0-.943-.315-1.361-1.257-1.57-.837-.105-1.675-.21-2.407-.105-.628 0-.733-.314-.733-.838 0-.418-.105-.942.628-.942h11.096c.838 0 .628.524.628.942 0 .524 0 .838-.628.733h-1.779c-1.152 0-1.885.733-1.885 1.884V26.15c0 1.151.524 1.674 1.675 1.78h1.675c1.152 0 .942-.106.942.941.21.314.21.523.21.733zm72.33 24.91v-1.57h61.029v1.57H193.76zm-47.94-5.548v-.628h.523c1.466-.314 2.408.314 3.036 1.675.942 2.093 2.198 4.081 3.35 6.07.104.21.209.314.314.523.418-.837.837-1.57 1.151-2.302.942-1.78 1.884-3.663 2.722-5.443.209-.314.419-.523.837-.523h2.513c.209.523.104.733-.419.733-1.047 0-1.152.104-1.152 1.15v6.594c0 1.466.105 1.57 1.571 1.675 0 .105.104.21.104.314v.314c-.104 0-.104.105-.209.105h-4.083c-.418 0-.628-.21-.418-.628l.104-.105c1.466-.105 1.571-.21 1.571-1.675v-5.651c0-.105 0-.314-.21-.523-1.361 2.72-2.826 5.442-4.292 8.268-1.465-2.617-2.931-5.129-4.396-7.745 0 .314-.105.418-.105.523v5.547c0 .837.21 1.151 1.152 1.151.523 0 .523 0 .523.628h-4.187v-.628h.523c.942-.104 1.152-.314 1.152-1.256v-7.012c0-1.151-.105-1.256-1.256-1.256-.105.105-.21.105-.419.105zm-34.65 5.129v3.768c0 .21.314.523.628.628.314.104.628 0 .942 0 .209.523 0 .732-.523.732h-3.664c-.419 0-.628-.104-.524-.628l.105-.104c1.466-.105 1.466-.105 1.466-1.675v-6.803c0-.942-.105-1.046-1.047-1.151-.628 0-.628 0-.524-.628h4.711v.523c-.105 0-.105.105-.209.105-1.466.105-1.466.105-1.466 1.674v2.512s0 .105.105.21h5.443v-3.663c0-.21-.419-.419-.628-.524-.314-.104-.628 0-.942 0v-.628h4.711c.104.419.104.628-.419.628-1.047 0-1.152.105-1.152 1.152v7.221c0 1.047 0 1.047 1.047 1.151.524 0 .524 0 .524.628h-4.711V58.7c.105 0 .105-.105.209-.105 1.675 0 1.466-.314 1.466-1.57V54.2c-1.78-.105-3.559-.105-5.548-.105zm21.77 5.442c-3.035 0-5.652-2.512-5.757-5.652 0-3.14 2.512-5.86 5.653-5.86 3.14 0 5.757 2.511 5.757 5.651.105 3.244-2.408 5.756-5.653 5.861zm-3.873-5.652c0 1.361.419 2.722 1.57 3.768 1.361 1.256 3.35 1.256 4.711 0 1.989-1.988 1.884-6.28-.314-8.059-1.465-1.256-3.35-1.046-4.606.314-.942 1.152-1.256 2.512-1.361 3.977zm38.733 5.234v-.628c1.675-.21 1.675-.21 1.675-1.884v-6.593c0-.942-.209-1.152-1.152-1.152-.523 0-.628-.21-.418-.628h9.002v2.093c0 .105-.314.315-.628.524v-.837c0-.628-.419-.942-.942-.942h-3.454a.715.715 0 00-.733.732v3.245h3.14c.21 0 .524-.419.628-.733.105-.21 0-.523.105-.733h.628v3.978h-.628c0-.314 0-.524-.105-.733-.209-.314-.523-.837-.733-.837-.942-.105-1.988 0-3.035 0v4.186c0 .419.314.628.837.628h3.245c1.152 0 1.256-.21 1.361-1.256v-.314h.628v2.303c-3.14-.419-6.176-.419-9.421-.419zM42.919 42.687v1.675h-11.62c-.733 0-.837-.314-.733-.838 0-.523 0-.942.733-.942.628.105 1.256 0 1.99-.104 1.046-.105 1.674-.733 1.674-1.78v-21.35c0-.942-.21-1.361-1.151-1.57-.838-.105-1.675-.21-2.408-.105-.733 0-.733-.419-.733-.942s.105-.837.733-.837h10.99c.734 0 .734.418.734.837 0 .523.104 1.047-.733.942-.628-.105-1.256 0-1.78 0-1.151 0-1.78.733-1.78 1.884v21.14c0 1.257.524 1.78 1.78 1.885.628.104 1.466.104 2.303.104z"/></symbol><symbol id="bubble" viewBox="0 0 38 31"><g fill="#3C3C3C"><path d="M4.707 30.084c-.043 0-.085 0-.128-.043a.289.289 0 01-.171-.257l-.3-3.98H1.926A1.918 1.918 0 010 23.88V8.516C0 7.446.856 6.59 1.926 6.59H25.59c1.07 0 1.926.856 1.926 1.926v15.363c0 1.07-.856 1.925-1.926 1.925H11.083l-2.995 2.012-3.21 2.182a.324.324 0 01-.17.086zM1.926 7.189c-.728 0-1.327.6-1.327 1.327v15.363c0 .727.6 1.326 1.327 1.326h2.482c.17 0 .3.129.3.3l.256 3.723 2.739-1.883 3.08-2.097c.044-.043.13-.043.172-.043H25.59c.728 0 1.327-.599 1.327-1.326V8.516c0-.727-.6-1.327-1.327-1.327H1.926z"/><path d="M20.797 11.511H6.933a.293.293 0 01-.3-.3c0-.17.128-.299.3-.299h13.864c.172 0 .3.129.3.3 0 .171-.128.3-.3.3zm-6.932 3.466H6.933a.293.293 0 01-.3-.299c0-.171.128-.3.3-.3h6.932c.171 0 .3.129.3.3 0 .171-.129.3-.3.3zm2.953 3.424H6.933a.293.293 0 01-.3-.3c0-.17.128-.299.3-.299h9.928c.17 0 .3.128.3.3-.044.17-.172.3-.343.3zm3.979 3.423H6.933a.292.292 0 01-.3-.3c0-.17.128-.299.3-.299h13.864c.172 0 .3.129.3.3 0 .171-.128.3-.3.3z"/><path d="M33.293 23.493c-.043 0-.128 0-.171-.042l-3.21-2.183-2.867-1.968c-.085-.043-.128-.172-.128-.257V8.516c0-.728-.6-1.327-1.327-1.327H10.784a.293.293 0 01-.3-.3V1.927C10.484.856 11.34 0 12.41 0h23.665C37.145 0 38 .856 38 1.926v15.362c0 1.07-.856 1.926-1.925 1.926h-2.183l-.3 3.98a.289.289 0 01-.17.257c-.043 0-.086.042-.129.042zm-5.777-4.621l2.739 1.84 2.738 1.883.257-3.723c0-.171.129-.3.3-.3h2.482c.727 0 1.326-.599 1.326-1.326V1.926c0-.728-.599-1.327-1.326-1.327H12.41c-.727 0-1.326.6-1.326 1.327V6.59H25.59c1.07 0 1.926.856 1.926 1.926v10.356z"/></g></symbol><symbol id="delivery" viewBox="0 0 46 33"><g fill="#5B5B5B"><path d="M19.514 8.463a.346.346 0 01-.35-.35c0-.176.13-.352.35-.352h13.55c.175 0 .35.132.35.351v20.786c0 .175-.13.35-.35.35h-17.54a.346.346 0 01-.351-.35 2.542 2.542 0 00-.746-1.623 2.473 2.473 0 00-1.666-.657c-.614 0-1.228.263-1.623.657-.438.395-.701 1.009-.745 1.623 0 .175-.132.307-.35.307H7.235a.346.346 0 01-.351-.351v-9.56c0-.175.131-.35.35-.35.176 0 .351.131.351.35v9.253h2.15c.13-.658.438-1.316.92-1.754.526-.526 1.272-.833 2.105-.833s1.579.307 2.105.833c.482.438.833 1.096.92 1.754h16.927V8.463h-13.2z"/><path d="M33.064 12.41h5.788c.132 0 .22.044.263.131l6.797 8.508a.335.335 0 01.088.219v7.63c0 .175-.132.35-.35.35h-2.807a.346.346 0 01-.351-.35 2.542 2.542 0 00-.745-1.622c-.439-.395-1.01-.658-1.623-.658-.658 0-1.228.263-1.666.658-.439.394-.702 1.008-.746 1.622 0 .175-.131.307-.35.307h-4.298a.346.346 0 01-.35-.35V12.76c0-.176.175-.351.35-.351zm5.657.701h-5.306v15.436h3.683a2.983 2.983 0 01.921-1.754 3.024 3.024 0 012.105-.833c.833 0 1.579.307 2.105.833.482.439.79 1.096.92 1.754h2.15v-7.191L38.72 13.11zm-8.376-.087H19.12v.658h11.226v-.658zm0 5.13H14.778v.658h15.567v-.658zm0 5.175H7.28v.658h23.066v-.658z"/><path d="M45.649 20.917H33.064v.658h12.585v-.658zM12.805 25.96c.877 0 1.622.35 2.148.877.57.57.877 1.316.877 2.149s-.35 1.622-.877 2.148a2.98 2.98 0 01-2.148.877c-.834 0-1.623-.35-2.15-.877a2.98 2.98 0 01-.876-2.148c0-.834.35-1.623.877-2.149a3.009 3.009 0 012.149-.877zm1.666 1.36a2.42 2.42 0 00-1.71-.702c-.658 0-1.272.263-1.667.701a2.42 2.42 0 00-.701 1.71c0 .658.263 1.272.701 1.667a2.396 2.396 0 001.667.701 2.42 2.42 0 001.71-.701 2.319 2.319 0 00.701-1.667 2.42 2.42 0 00-.701-1.71zm25.653-1.36c.833 0 1.623.35 2.149.877.57.57.877 1.316.877 2.149s-.35 1.622-.877 2.148a2.98 2.98 0 01-2.149.877c-.833 0-1.622-.35-2.149-.877a2.98 2.98 0 01-.877-2.148c0-.834.351-1.623.877-2.149a3.009 3.009 0 012.15-.877zm1.666 1.36a2.318 2.318 0 00-1.666-.702 2.42 2.42 0 00-1.71.701 2.42 2.42 0 00-.702 1.71c0 .658.263 1.272.702 1.667a2.421 2.421 0 001.71.701c.658 0 1.272-.263 1.666-.701a2.319 2.319 0 00.702-1.667 2.42 2.42 0 00-.701-1.71zm-7.586-12.674h4.122c.175 0 .35.132.35.351v4.736c0 .175-.13.35-.35.35h-4.122a.346.346 0 01-.351-.35v-4.736c0-.175.175-.35.35-.35zm3.771.702h-3.464v4.034h3.464v-4.034zM9.998 0a9.977 9.977 0 017.06 2.938c1.842 1.798 2.938 4.341 2.938 7.104a9.977 9.977 0 01-2.938 7.06c-1.842 1.798-4.341 2.938-7.104 2.938-2.762 0-5.262-1.14-7.104-2.938A10.275 10.275 0 010 9.998a9.974 9.974 0 012.938-7.104C4.736 1.14 7.235 0 9.998 0zm6.622 3.377C14.91 1.71 12.585.657 9.998.657c-2.587 0-4.911 1.053-6.621 2.72C1.71 5.087.657 7.41.657 9.998c0 2.587 1.053 4.911 2.72 6.622 1.71 1.71 4.034 2.718 6.621 2.718 2.587 0 4.911-1.052 6.622-2.718a9.24 9.24 0 002.762-6.622c0-2.587-1.052-4.911-2.762-6.621z"/><path d="M9.998 4.867c2.719 0 5.175.57 6.973 1.448 1.885.92 3.025 2.236 3.025 3.683 0 1.447-1.14 2.763-3.025 3.684-1.799.877-4.254 1.447-6.973 1.447-2.719 0-5.174-.527-6.972-1.404C1.14 12.761 0 11.49 0 9.998c0-1.49 1.14-2.763 3.026-3.683 1.798-.921 4.253-1.448 6.972-1.448zm6.71 2.018c-1.71-.877-4.079-1.36-6.71-1.36-2.631 0-4.999.526-6.71 1.36C1.667 7.718.659 8.77.659 9.998c0 1.184 1.008 2.28 2.63 3.114 1.711.877 4.079 1.359 6.71 1.359 2.631 0 5-.526 6.71-1.36 1.622-.789 2.63-1.885 2.63-3.113.044-1.184-1.008-2.28-2.63-3.113z"/><path d="M9.998 0c1.754 0 3.333 1.14 4.429 2.982 1.096 1.798 1.754 4.297 1.754 7.016 0 2.719-.658 5.218-1.754 7.016-1.14 1.842-2.719 2.982-4.429 2.982-1.754 0-3.333-1.14-4.429-2.982-1.096-1.798-1.754-4.297-1.754-7.016 0-2.719.658-5.218 1.754-7.016C6.709 1.14 8.244 0 9.998 0zm3.903 3.333C12.892 1.71 11.533.658 9.998.658c-1.535 0-2.85 1.008-3.859 2.675-1.052 1.71-1.666 4.078-1.666 6.665 0 2.631.614 4.955 1.666 6.665 1.009 1.623 2.368 2.675 3.859 2.675 1.49 0 2.894-1.008 3.903-2.675 1.008-1.71 1.666-4.078 1.666-6.665 0-2.587-.658-4.955-1.666-6.665z"/><path d="M9.691.35c0-.175.132-.35.351-.35.175 0 .35.132.35.35v19.34c0 .175-.13.35-.35.35a.346.346 0 01-.35-.35V.35z"/></g></symbol><symbol id="document" viewBox="0 0 41 37"><g fill="#5B5B5B"><path d="M30.249 32.443H5.495a.315.315 0 01-.323-.322V1.318c0-.184.139-.322.323-.322h18.427c.092 0 .184.046.23.092l6.281 6.253a.35.35 0 01.093.23v9.057c0 .046 0 .138-.046.183l-2.171 3.724-.508 4.736 2.17-1.61c.093-.091.231-.091.37-.045a.387.387 0 01.185.322v8.137c.046.23-.093.368-.277.368zm-24.384-.69h24.06v-7.126l-2.263 1.655c-.092.092-.23.092-.369 0a.387.387 0 01-.185-.321l.37-3.357.23-2.252c0-.046 0-.092.047-.138l2.17-3.724V7.662L23.83 1.594H5.865v30.16z"/><path d="M25.261 12.076H9.098a.315.315 0 01-.323-.322c0-.184.138-.321.323-.321H25.26c.185 0 .324.137.324.321.046.184-.139.322-.324.322zm0 4.966H9.098a.315.315 0 01-.323-.322c0-.184.138-.322.323-.322H25.26c.185 0 .324.138.324.322.046.184-.139.322-.324.322zm0 4.965H9.098a.315.315 0 01-.323-.322c0-.184.138-.322.323-.322H25.26c.185 0 .324.138.324.322.046.184-.139.322-.324.322zm0 4.965H9.098a.315.315 0 01-.323-.322c0-.183.138-.321.323-.321H25.26c.185 0 .324.137.324.321.046.184-.139.322-.324.322zM30.249 8.03h-6.28a.315.315 0 01-.324-.321v-6.39c0-.139.092-.277.23-.323.14-.046.278-.046.37.092l6.28 6.253a.35.35 0 01.093.23v.092c-.046.184-.185.367-.37.367zm-5.958-.69h5.219L24.245 2.1v5.24h.046z"/><path d="M25.03 36.397H.323A.315.315 0 010 36.075V5.272c0-.184.139-.322.323-.322h5.173c.184 0 .323.138.323.322V31.8H25.03c.185 0 .323.138.323.321v3.954c.047.138-.138.322-.323.322zm-24.383-.69h24.06v-3.264H5.496a.315.315 0 01-.324-.322V5.594H.647v30.114zM18.288 8.214H9.144a.315.315 0 01-.323-.321c0-.184.138-.322.323-.322h9.144c.184 0 .323.138.323.322a.315.315 0 01-.323.321zm0-3.862H9.144a.315.315 0 01-.323-.321c0-.184.138-.322.323-.322h9.144c.184 0 .323.138.323.322a.315.315 0 01-.323.321zm9.144 21.977c-.046 0-.139 0-.185-.046a.387.387 0 01-.184-.322l.6-5.563c0-.046 0-.092.046-.138l8.682-15.034c.046-.092.139-.138.185-.138.092 0 .185 0 .277.046l3.925 2.253c.139.092.231.276.139.46L32.28 22.88c-.046.046-.046.091-.092.091l-4.526 3.31c-.093.047-.139.047-.231.047zm.924-5.793l-.508 4.735 3.879-2.804L40.224 7.8l-3.371-1.93-8.497 14.666z"/><path d="M39.485 10.053c-.046 0-.139 0-.185-.046l-3.925-2.252c-.139-.092-.231-.276-.139-.46l1.201-2.069c.046-.092.139-.138.185-.138.092 0 .185 0 .277.046l3.925 2.253c.139.092.231.276.139.46l-1.2 2.069c-.047.091-.14.137-.186.137h-.092zm-3.463-2.712l3.37 1.93.878-1.47L36.9 5.87l-.877 1.47zm-8.59 18.987c-.046 0-.139 0-.185-.045a.387.387 0 01-.184-.322l.6-5.563c0-.092.092-.23.185-.276a.396.396 0 01.323 0l3.925 2.253c.093.046.139.138.185.276 0 .091-.046.23-.139.275l-4.525 3.31c-.047.092-.093.092-.185.092zm.877-5.379l-.461 4.322 3.51-2.575-3.049-1.747z"/><path d="M27.432 26.328c-.046 0-.139 0-.185-.046a.387.387 0 01-.184-.321l.369-3.356c0-.092.092-.184.185-.276.092-.046.184-.046.323 0 .416.184.831.413 1.247.643.415.23.785.506 1.154.782.093.046.139.184.139.276 0 .092-.046.184-.139.276l-2.724 1.976c-.047.046-.093.046-.185.046zm.646-3.172l-.23 2.115 1.755-1.241a3.99 3.99 0 00-.74-.46c-.276-.138-.507-.276-.785-.414z"/></g></symbol><symbol id="handle" viewBox="0 0 40 34"><mask id="path-1-inside-1_387_2075" fill="#fff"><path d="M30.128.96l-3.416 3.409c-.17-.034-.341-.034-.512-.069-1.23-.477-3.382-.852-5.944 1.125l-.068.068-.82.853c-3.143-2.148-5.636-.818-6.353-.341L9.872 2.869 0 12.686l3.757 3.75c.035 1.67.615 3.408 1.777 5.112a12.936 12.936 0 001.64 1.977l2.322 2.318c-.854 1.227-.478 2.25.41 3.17.922.954 1.742 1.057 2.972.716h.034c.888 1.33 1.708 1.977 2.596 2.045.376.341.717.716 1.093 1.057 1.093 1.056 2.767 1.295 4.065.545.58-.34.65-.58.956-1.056 2.22 1.874 3.724 1.908 5.466-.716h.034c1.23.34 2.084.238 2.972-.716.922-.955 1.298-2.045.239-3.375l-.273-.34c.751.034 1.332-.444 1.64-.853.853-1.125.82-2.284-.103-3.408l1.23-1.227a12.933 12.933 0 001.64-1.977c1.16-1.739 1.741-3.443 1.776-5.113L40 10.845 30.128.96zM7.788 22.094C6.661 20.9 5.807 19.57 5.431 18.07c-.068-.34-.136-.681-.17-1.022-.035-.273-.035-.58-.035-.886l-3.825-3.784 8.163-8.147 2.63 2.625.171.17v.034l1.264.103.069-.205c.512-.34 2.562-1.5 5.328.614l3.655 3.681c.171.17.274.443.274.682a.95.95 0 01-.273.681l-.24.24c-.375.374-.99.374-1.4 0l-3.758-3.75-.888.613 1.025 1.193.444.443-1.298 1.296a.908.908 0 00-.205.34l-.068.069c-2.494 2.488-5.022 5.01-7.515 7.533-.513.511-.854 1.022-.99 1.5zm12.127 10.191c-.274.273-.581.444-1.025.41-.58-.035-1.025-.512-1.298-.785l-.513-.51c.41-.24.854-.546 1.333-.921.307.477.375.716.956 1.056.24.137.512.24.786.341-.069.137-.137.307-.24.41zm5.363-.51c-.547.647-1.196.715-2.016-.035-.137-.102-.239-.239-.376-.34a2.75 2.75 0 00.513-.41c.478-.443.922-.92 1.4-1.363l.137.136c.786.75.888 1.398.341 2.011zm3.928-2.046c-.58.784-1.435.784-2.22.034l-1.162-1.159a98.193 98.193 0 001.913-1.875l1.059 1.057c.717.716.82 1.363.41 1.943zm1.571-4.568c-.273.716-1.127 1.057-1.81.682a.716.716 0 01-.205-.136l1.844-1.84c.24.374.376.783.171 1.294zm4.03-10.84c0 .308 0 .58-.033.887-.035.341-.103.682-.171 1.023-.376 1.5-1.23 2.829-2.391 4.022-1.537 1.636-3.177 3.204-4.783 4.772l-5.02 5.01c-.274.273-.718.75-1.299.785-.444.034-.717-.137-1.025-.41-.273-.238-.341-.852-.239-1.26.103-.41.479-.784.82-1.125.752-.784 1.537-1.534 2.323-2.318l1.127-1.125c.41-.41 1.537-1.261.888-1.875-.58-.545-1.434.511-1.81.886l-1.127 1.125c-1.777 1.704-3.519 3.477-5.33 5.147-.819.75-1.468.716-2.014.034-.547-.613-.445-1.26.341-2.01l6.012-6c.273-.273.512-.477.58-.886.035-.307-.068-.614-.41-.648-.546-.068-.785.136-1.16.477l-7.071 7.056c-.786.784-1.64.75-2.22-.034-.41-.58-.308-1.227.375-1.909 2.391-2.386 4.782-4.806 7.208-7.192.375-.375.683-.818.204-1.261-.444-.443-.854-.034-1.195.307l-5.534 5.522c-.239.238-.512.511-.82.647-.683.375-1.537.034-1.81-.681-.308-.75.068-1.193.546-1.67 3.075-3.068 6.149-6.102 9.19-9.17l1.263 1.261c.444.443.99.648 1.537.648.547 0 1.127-.205 1.537-.648l.24-.238c.41-.41.648-.955.648-1.534 0-.546-.204-1.057-.58-1.466l-2.767-2.83-.547-.544.752-.75c1.161-.887 2.186-1.193 3.04-1.227 1.537-.137 2.938.681 2.938.681l.82-.818 2.63-2.624 8.13 8.146-3.792 3.818z"/></mask><path d="M30.128.96l-3.416 3.409c-.17-.034-.341-.034-.512-.069-1.23-.477-3.382-.852-5.944 1.125l-.068.068-.82.853c-3.143-2.148-5.636-.818-6.353-.341L9.872 2.869 0 12.686l3.757 3.75c.035 1.67.615 3.408 1.777 5.112a12.936 12.936 0 001.64 1.977l2.322 2.318c-.854 1.227-.478 2.25.41 3.17.922.954 1.742 1.057 2.972.716h.034c.888 1.33 1.708 1.977 2.596 2.045.376.341.717.716 1.093 1.057 1.093 1.056 2.767 1.295 4.065.545.58-.34.65-.58.956-1.056 2.22 1.874 3.724 1.908 5.466-.716h.034c1.23.34 2.084.238 2.972-.716.922-.955 1.298-2.045.239-3.375l-.273-.34c.751.034 1.332-.444 1.64-.853.853-1.125.82-2.284-.103-3.408l1.23-1.227a12.933 12.933 0 001.64-1.977c1.16-1.739 1.741-3.443 1.776-5.113L40 10.845 30.128.96zM7.788 22.094C6.661 20.9 5.807 19.57 5.431 18.07c-.068-.34-.136-.681-.17-1.022-.035-.273-.035-.58-.035-.886l-3.825-3.784 8.163-8.147 2.63 2.625.171.17v.034l1.264.103.069-.205c.512-.34 2.562-1.5 5.328.614l3.655 3.681c.171.17.274.443.274.682a.95.95 0 01-.273.681l-.24.24c-.375.374-.99.374-1.4 0l-3.758-3.75-.888.613 1.025 1.193.444.443-1.298 1.296a.908.908 0 00-.205.34l-.068.069c-2.494 2.488-5.022 5.01-7.515 7.533-.513.511-.854 1.022-.99 1.5zm12.127 10.191c-.274.273-.581.444-1.025.41-.58-.035-1.025-.512-1.298-.785l-.513-.51c.41-.24.854-.546 1.333-.921.307.477.375.716.956 1.056.24.137.512.24.786.341-.069.137-.137.307-.24.41zm5.363-.51c-.547.647-1.196.715-2.016-.035-.137-.102-.239-.239-.376-.34a2.75 2.75 0 00.513-.41c.478-.443.922-.92 1.4-1.363l.137.136c.786.75.888 1.398.341 2.011zm3.928-2.046c-.58.784-1.435.784-2.22.034l-1.162-1.159a98.193 98.193 0 001.913-1.875l1.059 1.057c.717.716.82 1.363.41 1.943zm1.571-4.568c-.273.716-1.127 1.057-1.81.682a.716.716 0 01-.205-.136l1.844-1.84c.24.374.376.783.171 1.294zm4.03-10.84c0 .308 0 .58-.033.887-.035.341-.103.682-.171 1.023-.376 1.5-1.23 2.829-2.391 4.022-1.537 1.636-3.177 3.204-4.783 4.772l-5.02 5.01c-.274.273-.718.75-1.299.785-.444.034-.717-.137-1.025-.41-.273-.238-.341-.852-.239-1.26.103-.41.479-.784.82-1.125.752-.784 1.537-1.534 2.323-2.318l1.127-1.125c.41-.41 1.537-1.261.888-1.875-.58-.545-1.434.511-1.81.886l-1.127 1.125c-1.777 1.704-3.519 3.477-5.33 5.147-.819.75-1.468.716-2.014.034-.547-.613-.445-1.26.341-2.01l6.012-6c.273-.273.512-.477.58-.886.035-.307-.068-.614-.41-.648-.546-.068-.785.136-1.16.477l-7.071 7.056c-.786.784-1.64.75-2.22-.034-.41-.58-.308-1.227.375-1.909 2.391-2.386 4.782-4.806 7.208-7.192.375-.375.683-.818.204-1.261-.444-.443-.854-.034-1.195.307l-5.534 5.522c-.239.238-.512.511-.82.647-.683.375-1.537.034-1.81-.681-.308-.75.068-1.193.546-1.67 3.075-3.068 6.149-6.102 9.19-9.17l1.263 1.261c.444.443.99.648 1.537.648.547 0 1.127-.205 1.537-.648l.24-.238c.41-.41.648-.955.648-1.534 0-.546-.204-1.057-.58-1.466l-2.767-2.83-.547-.544.752-.75c1.161-.887 2.186-1.193 3.04-1.227 1.537-.137 2.938.681 2.938.681l.82-.818 2.63-2.624 8.13 8.146-3.792 3.818z" fill="#5B5B5B" stroke="#D1D1D1" stroke-width=".6" mask="url(#path-1-inside-1_387_2075)"/></symbol><symbol id="label" viewBox="0 0 39 39"><g fill="#3C3C3C"><path d="M15.973 38.77a.333.333 0 01-.218-.087L.098 23.027c-.13-.131-.13-.306 0-.436l18.23-18.274a.467.467 0 01.261-.087l14.349 1.003c.174 0 .261.131.305.306l1.308 14.653a.62.62 0 01-.087.262l-18.273 18.23a.333.333 0 01-.218.087zM.796 22.81l15.177 15.22 17.924-17.924-1.265-14.218L18.72 4.884.796 22.81z"/><path d="M24.303 19.887a5.308 5.308 0 01-3.838-1.614c-2.137-2.137-2.137-5.582 0-7.675 1.047-1.047 2.398-1.614 3.838-1.614 1.439 0 2.834.567 3.837 1.614 2.137 2.137 2.137 5.582 0 7.675a5.308 5.308 0 01-3.837 1.614zm0-10.205c-1.265 0-2.486.48-3.402 1.396a4.817 4.817 0 000 6.803c.916.916 2.093 1.395 3.402 1.395 1.308 0 2.485-.48 3.401-1.395a4.817 4.817 0 000-6.803 4.783 4.783 0 00-3.401-1.396z"/><path d="M23.997 14.479a.333.333 0 01-.218-.087c-.698-.698-.567-2.05.393-3.882.872-1.7 2.398-3.663 4.186-5.495C31.368 2.006 34.638 0 36.514 0c.523 0 .915.13 1.22.436.699.654.568 1.963-.305 3.75-.828 1.658-2.224 3.533-3.968 5.321-.131.131-.305.131-.436 0-.131-.13-.131-.305 0-.436 3.663-3.794 5.19-7.283 4.274-8.199-.175-.174-.437-.261-.785-.261-1.701 0-4.885 2.006-7.72 4.84-3.837 3.882-5.495 7.589-4.579 8.505.131.13.131.305 0 .436-.043.087-.13.087-.218.087zM19.81 26.777a.333.333 0 01-.218-.087l-7.501-7.545c-.13-.13-.13-.305 0-.436.13-.13.305-.13.436 0l7.545 7.545c.13.13.13.305 0 .436-.087.087-.174.087-.262.087zm-2.573 2.617a.333.333 0 01-.218-.087l-3.27-3.271c-.132-.13-.132-.305 0-.436.13-.131.305-.131.435 0l3.271 3.27c.131.131.131.306 0 .437-.087.043-.13.087-.218.087zm-2.616 2.616a.334.334 0 01-.218-.086l-5.757-5.757c-.13-.131-.13-.306 0-.436.131-.131.305-.131.436 0l5.713 5.713c.131.13.131.305 0 .436 0 .087-.087.13-.174.13zm21.369 6.76H2.236a.298.298 0 01-.305-.305c0-.174.13-.305.305-.305h33.8c.174 0 .304.131.304.305 0 .175-.174.306-.348.306z"/></g></symbol><symbol id="money" viewBox="0 0 42 28"><g fill="#5B5B5B"><path d="M32.287 18.998H1.752C.805 18.998 0 18.196 0 17.254V2.69C0 1.748.805.947 1.752.947h30.535c.947 0 1.752.8 1.752 1.743v14.564c0 .942-.805 1.744-1.752 1.744zM1.752 1.653A1.05 1.05 0 00.71 2.69v14.564a1.05 1.05 0 001.042 1.037h30.535a1.05 1.05 0 001.042-1.037V2.69a1.05 1.05 0 00-1.042-1.037H1.752z"/><path d="M26.985 16.594H7.054a.323.323 0 01-.332-.33 3.961 3.961 0 00-3.976-3.96.323.323 0 01-.332-.329V7.969c0-.189.142-.33.332-.33 2.177 0 3.976-1.791 3.976-3.959 0-.189.142-.33.332-.33h19.93c.19 0 .332.141.332.33 0 2.168 1.8 3.959 3.977 3.959.19 0 .331.141.331.33v4.006c0 .189-.142.33-.331.33-2.178 0-3.977 1.79-3.977 3.959 0 .188-.142.33-.331.33zm-19.6-.707h19.268a4.701 4.701 0 014.309-4.289V8.252c-2.273-.189-4.12-1.98-4.309-4.29H7.385a4.701 4.701 0 01-4.308 4.29v3.346a4.701 4.701 0 014.308 4.289z"/><path d="M16.996 13.955c-1.468 0-2.604-1.744-2.604-4.007 0-2.215 1.136-4.006 2.604-4.006 1.467 0 2.604 1.744 2.604 4.006 0 2.263-1.137 4.007-2.604 4.007zm0-7.306c-1.042 0-1.894 1.509-1.894 3.3 0 1.79.852 3.299 1.894 3.299 1.041 0 1.893-1.508 1.893-3.3.048-1.79-.852-3.299-1.893-3.299z"/><path d="M35.932 22.957H5.397c-.947 0-1.752-.802-1.752-1.744V18.62c0-.188.142-.33.332-.33H32.24c.568 0 1.041-.47 1.041-1.036V5.283c0-.189.142-.33.332-.33h2.272c.947 0 1.752.8 1.752 1.743V21.26c.047.942-.758 1.697-1.705 1.697zm-31.577-3.96v2.263a1.05 1.05 0 001.042 1.037h30.535c.569 0 1.042-.472 1.042-1.037V6.696c0-.565-.473-1.036-1.041-1.036h-1.894V17.3c0 .944-.805 1.745-1.752 1.745H4.355v-.047z"/><path d="M40.335 27.67H9.8c-.947 0-1.752-.802-1.752-1.744v-3.3c0-.188.142-.33.332-.33h27.505c.568 0 1.042-.47 1.042-1.036V9.995c0-.188.142-.33.331-.33h2.983c.947 0 1.751.802 1.751 1.744v14.564c.095.895-.71 1.697-1.657 1.697zM8.758 22.956v2.97A1.05 1.05 0 009.8 26.963h30.535c.569 0 1.042-.472 1.042-1.037V11.362a1.05 1.05 0 00-1.042-1.037h-2.65V21.26c0 .942-.806 1.743-1.752 1.743H8.758v-.047z"/></g></symbol><symbol id="reward" viewBox="0 0 41 40"><path d="M.027 32.959c.07.242.277.381.52.416l5.278.416L6 38.682c0 .243.139.45.382.52.07.035.139.035.243.035.139 0 .278-.07.417-.139l9.861-8.88.486 1.284c.243.624.695 1.006 1.25 1.006.417 0 .799-.208 1.146-.59l1.736-2.15a.742.742 0 01.59-.278c.14 0 .313.035.521.208l2.05 1.873c.312.278.659.451 1.04.451.244 0 .522-.07.73-.243l7.118 7.909a.56.56 0 00.452.208c.07 0 .139 0 .173-.035a.656.656 0 00.417-.485l.556-4.787 5.277-.486a.668.668 0 00.521-.381.672.672 0 00-.104-.625l-8.75-9.712c0-.035 0-.035.035-.07a.718.718 0 01.486-.346l2.708-.624c.556-.14.972-.486 1.111-.937.14-.45-.035-.971-.416-1.388l-1.91-1.977a.787.787 0 01-.209-.555c0-.208.105-.381.278-.52l2.084-1.804c.451-.381.66-.867.555-1.352-.104-.451-.451-.833-1.007-1.041l-2.604-.867a.822.822 0 01-.451-.382c-.07-.173-.105-.381 0-.59l1.007-2.566c.208-.52.173-1.006-.07-1.353-.278-.416-.798-.624-1.423-.52l-2.952.381a.74.74 0 01-.868-.659l-.313-2.74c-.104-.902-.694-1.318-1.25-1.318-.312 0-.66.104-.937.347l-2.222 1.665a.774.774 0 01-1.077-.174l-1.528-2.289c-.312-.486-.729-.728-1.18-.728-.521 0-.973.312-1.216.901l-1.18 2.498a.76.76 0 01-1.042.347l-2.43-1.318c-.626-.347-1.285-.278-1.667.138a1.537 1.537 0 00-.382 1.145l.104 2.775c0 .208-.07.416-.208.555a.82.82 0 01-.556.243l-2.778-.035c-.59 0-1.041.243-1.285.66-.243.415-.208.936.07 1.421l1.389 2.394a.699.699 0 01.07.59.821.821 0 01-.383.45L6 14.991c-.52.277-.833.694-.868 1.18-.035.485.243.936.73 1.248l2.326 1.492a.717.717 0 01.347.485.725.725 0 01-.14.59l-1.562 2.15c-.347.486-.416 1.006-.208 1.423.208.416.66.693 1.25.763l1.111.104L.2 32.334c-.173.14-.243.382-.173.625zm32.153-4.752c.035-.035.07-.07.105-.14.104-.069.208-.138.277-.242.243-.347.313-.798.174-1.318l-.243-.867 6.597 7.284-4.583.416c-.278.035-.521.243-.556.52l-.451 3.955-6.563-7.18.52-2.498c.036-.104.07-.173.105-.243a.912.912 0 01.521-.069l2.674.694c.555.139 1.076.035 1.423-.312zm-24.236-5.03c-.174 0-.244-.07-.278-.07v-.034c0-.035.034-.104.104-.243l1.597-2.254c.07-.105.139-.209.208-.347.174-.347.209-.763.14-1.145a1.899 1.899 0 00-.869-1.249L6.52 16.344c-.07-.035-.139-.104-.139-.139-.035-.035-.035-.07-.035-.07s.035-.103.209-.173l1.25-.659 1.18-.624c.486-.243.834-.66.972-1.18a1.934 1.934 0 00-.138-1.456c0-.035-.035-.035-.035-.07L8.394 9.58c-.069-.035-.069-.104-.069-.174v-.034h.035c.035-.035.104-.035.243-.035h.73l2.083.035c.52 0 1.041-.208 1.389-.59.173-.173.312-.416.416-.659 0-.035 0-.035.035-.07.07-.207.104-.45.104-.693l-.104-2.775c0-.173.035-.278.07-.278.034 0 .104 0 .243.07l2.014 1.075.451.243c.035 0 .07.035.104.035.278.138.556.208.833.208.487 0 .973-.208 1.32-.52.174-.174.313-.347.417-.59l1.076-2.463c.035-.035.035-.07.07-.104.034-.07.069-.07.069-.104 0 0 .035 0 .035.035 0 0 .035 0 .035.034l.138.139 1.042 1.56.486.73c.104.173.278.346.417.45.347.243.729.382 1.146.382.139 0 .243 0 .382-.035.277-.07.555-.173.798-.347l.903-.693 1.32-.972c.139-.104.208-.104.243-.104h.034s.07.07.104.278l.313 2.74c.035.416.208.763.451 1.04.105.105.209.209.313.278.382.278.903.416 1.458.347l2.744-.451a.646.646 0 01.277 0v.035c0 .034 0 .104-.034.243l-1.007 2.566c-.035.07-.035.14-.07.174v.034c-.104.347-.07.729.035 1.076.035.07.07.139.07.208.034.104.104.173.138.243.243.346.59.624.972.763l1.945.659.66.208c.104.035.173.07.208.104l.035.035s0 .07-.07.104l-.104.104-1.32 1.214-.763.659c-.417.347-.66.832-.66 1.353-.035.52.174 1.04.556 1.422l1.91 1.977c.138.139.138.208.138.243-.035.034-.104.07-.243.104l-2.708.694c-.521.138-.973.45-1.216.901a1.28 1.28 0 00-.139.313c-.034.104-.069.208-.069.346-.243.417-.347.729-.243 1.11l.764 2.637-2.639-.694c-.104-.035-.208-.035-.313-.07h-.173c-.104 0-.209 0-.313.035h-.07a.645.645 0 00-.242.07c-.035 0-.07.034-.104.034-.035.035-.104.035-.14.07a.754.754 0 00-.173.104c-.035 0-.035.034-.07.034-.104.07-.173.14-.242.209a1.858 1.858 0 00-.799 1.214l-.556 2.358c-.034.139 0 .243.035.382-.035 0-.035-.035-.07-.035-.034-.035-.069-.035-.103-.07l-2.05-1.872a1.307 1.307 0 00-.52-.313 2.06 2.06 0 00-.799-.173c-.347 0-.66.104-.937.243-.104.07-.174.104-.278.173a1.08 1.08 0 00-.278.278l-1.736 2.15-.07.07-.069.07c-.035.034-.07.034-.07.034h-.034c-.035-.035-.07-.104-.139-.208l-.625-1.735a.603.603 0 00.14-.624l-.036-.104a1.832 1.832 0 00-1.041-1.11 2.902 2.902 0 00-.521-.139 1.01 1.01 0 00-.313-.07c-.104-.034-.208-.034-.312-.034-.14 0-.243 0-.382.035-.14.035-.243.07-.382.104l-2.43 1.04v-.069l.381-2.74c.07-.52-.07-1.075-.417-1.492a1.974 1.974 0 00-1.25-.693c-.069-.035-.138-.035-.208-.07-.104-.035-.208-.035-.312-.07l-.938-.069-1.806-.173zm2.43 1.596l.625-.07a.27.27 0 01.139.139c.139.173.174.347.139.59l-.382 2.74c-.07.485.035.902.313 1.214.173.208.45.347.729.381.347.174.833.174 1.284 0l2.535-1.075a1.01 1.01 0 01.313-.07c.139.07.243.209.312.382l.035.07-9.236 8.325-.14-4.163c0-.312-.242-.555-.555-.59L2.041 32.3l8.333-7.527z" fill="#5B5B5B"/><path d="M30.012 16.877c0 4.834-3.936 8.755-8.797 8.755-4.86 0-8.796-3.922-8.796-8.755s3.936-8.755 8.796-8.755c4.86 0 8.797 3.922 8.797 8.755z" stroke="#5B5B5B" fill="none"/></symbol></svg>