<svg width="1432" height="1354" viewBox="0 0 1432 1354" fill="none" xmlns="http://www.w3.org/2000/svg">
<rect x="-179" y="330" width="1672" height="680" fill="#F0F0F0"/>
<path d="M-141.542 935.125C-141.542 971.715 -140.636 1008.61 -141.845 1045.2C-143.96 1110.58 -91.3709 1179.86 -34.5504 1202.05C74.255 1244.34 182.154 1288.43 290.657 1331.92C365.007 1361.61 439.357 1361.31 513.708 1331.32C621.002 1288.43 728.296 1245.24 835.892 1202.35C900.571 1176.56 945 1112.68 945 1043.7C945 972.015 945 900.335 945 828.654C945 759.073 901.176 895.906 835.892 869.813C729.203 827.224 779.615 870.343 672.32 828.654C746.19 892.98 677.278 869.813 513.708 828.654C350.137 787.495 360.481 783.613 284.914 790.839C209.347 798.065 -36.0615 780.656 -36.0615 780.656C-36.0615 780.656 -138.218 751.875 -141.24 824.155C-142.751 861.045 -141.542 898.235 -141.542 935.125Z" fill="#F0F0F0"/>
<path d="M1723.55 410.468C1723.55 374.699 1722.67 338.638 1723.85 302.869C1725.91 238.955 1674.58 171.229 1619.12 149.534C1512.92 108.195 1407.6 65.0967 1301.69 22.585C1229.12 -6.44026 1156.55 -6.14708 1083.98 23.1713C979.248 65.0967 874.52 107.315 769.497 149.241C706.366 174.454 663 236.903 663 304.335C663 374.406 663 444.477 663 514.548C663 582.567 705.776 448.807 769.497 474.314C873.635 515.946 824.429 473.796 929.157 514.548C857.055 451.667 924.318 474.314 1083.98 514.548C1243.63 554.783 1233.54 558.578 1307.3 551.514C1381.06 544.45 1620.59 561.469 1620.59 561.469C1620.59 561.469 1720.31 589.603 1723.26 518.946C1724.73 482.884 1723.55 446.529 1723.55 410.468Z" fill="#F0F0F0"/>
<path d="M536.698 422.551C536.698 398.218 536.101 373.686 536.897 349.354C538.291 305.875 503.65 259.802 466.223 245.043C394.554 216.921 323.482 187.603 252.011 158.683C203.037 138.938 154.063 139.137 105.089 159.082C34.415 187.603 -36.2589 216.323 -107.132 244.844C-149.735 261.996 -179 304.478 -179 350.351C-179 398.019 -179 445.686 -179 493.354C-179 539.626 -150.134 582.108 -107.132 599.46C-36.8562 627.781 33.2205 656.701 103.895 684.424C120.816 691.006 139.132 695.792 157.049 698.385C191.092 703.172 223.941 696.989 255.794 684.025C326.07 655.105 397.142 627.98 467.219 598.263C511.016 579.714 534.508 544.412 536.499 496.346C537.494 471.814 536.698 447.083 536.698 422.551Z" fill="#606060"/>
<path d="M-14.5189 532.436C-14.5189 494.02 -15.789 455.914 -14.2014 417.499C-11.0261 342.837 26.4424 288.312 96.2989 259.19C207.752 213.03 321.11 170.587 433.515 125.975C484.32 105.528 536.712 95.9245 591.01 103.67C619.905 107.697 648.8 115.132 675.79 125.356C788.196 168.418 899.966 213.339 1012.37 257.331C1080.96 284.594 1127 350.582 1127 422.456C1127 496.499 1127 570.541 1127 644.584C1127 715.838 1080.32 781.826 1012.37 808.469C899.649 852.771 786.608 897.073 673.885 941.684C595.773 972.354 517.661 972.974 439.548 942.304C325.555 897.692 212.197 851.841 97.8865 808.159C38.191 785.234 -17.0592 713.67 -14.8365 646.133C-13.5664 608.337 -14.5189 570.541 -14.5189 532.436ZM29.3001 533.365C28.9826 533.365 28.9826 533.365 28.6651 533.365C28.6651 569.922 28.6651 606.478 28.6651 643.035C28.9826 699.729 63.5934 748.987 117.573 770.054C232.202 814.665 346.512 860.206 461.14 904.818C522.424 928.672 584.977 929.912 646.26 906.676C763.429 861.755 879.962 814.975 996.813 768.815C1049.84 747.748 1083.5 698.18 1083.5 642.415C1083.5 571.161 1081.91 499.906 1084.13 428.652C1085.72 373.197 1046.67 315.264 990.78 294.198C877.104 251.135 764.699 204.975 651.023 161.293C589.422 137.438 526.234 136.509 464.633 160.054C347.147 204.665 230.296 250.516 114.081 297.915C63.5933 318.362 33.428 357.397 29.6177 411.303C27.0774 451.577 29.3001 492.471 29.3001 533.365Z" fill="#D1D1D1" fill-opacity="0.7"/>
<path d="M753.302 973.447C753.302 997.78 753.899 1022.31 753.102 1046.64C751.709 1090.12 786.349 1136.2 823.776 1150.95C895.446 1179.08 966.518 1208.4 1037.99 1237.31C1086.96 1257.06 1135.94 1256.86 1184.91 1236.92C1255.58 1208.4 1326.26 1179.67 1397.13 1151.15C1439.73 1134 1469 1091.52 1469 1045.65C1469 997.979 1469 950.312 1469 902.644C1469 856.372 1440.13 813.89 1397.13 796.538C1326.86 768.217 1256.78 739.297 1186.11 711.574C1169.18 704.993 1150.87 700.206 1132.95 697.613C1098.91 692.826 1066.06 699.009 1034.21 711.973C963.93 740.893 892.858 768.018 822.781 797.735C778.983 816.284 755.491 851.586 753.501 899.652C752.505 924.184 753.302 948.915 753.302 973.447Z" fill="#C7C7C7"/>
<path d="M1304.76 863.286C1304.76 882.76 1305.4 902.078 1304.59 921.552C1302.98 959.402 1283.95 987.043 1248.47 1001.81C1191.87 1025.21 1134.3 1046.72 1077.21 1069.34C1051.4 1079.7 1024.8 1084.57 997.219 1080.65C982.544 1078.6 967.868 1074.84 954.161 1069.65C897.072 1047.82 840.306 1025.05 783.217 1002.75C748.384 988.928 725 955.475 725 919.039C725 881.504 725 843.968 725 806.433C725 770.311 748.706 736.858 783.217 723.352C840.467 700.893 897.878 678.435 955.128 655.819C994.8 640.271 1034.47 639.957 1074.14 655.505C1132.04 678.121 1189.61 701.365 1247.67 723.509C1277.99 735.131 1306.05 771.41 1304.92 805.647C1304.27 824.808 1304.76 843.968 1304.76 863.286ZM1282.5 862.814C1282.66 862.814 1282.66 862.814 1282.82 862.814C1282.82 844.282 1282.82 825.75 1282.82 807.218C1282.66 778.477 1265.08 753.506 1237.67 742.826C1179.45 720.211 1121.39 697.124 1063.18 674.509C1032.05 662.416 1000.28 661.787 969.159 673.566C909.651 696.339 850.466 720.054 791.12 743.455C764.188 754.134 747.094 779.263 747.094 807.532C747.094 843.654 747.9 879.776 746.771 915.898C745.965 944.011 765.801 973.379 794.184 984.059C851.917 1005.89 909.006 1029.29 966.74 1051.43C998.025 1063.53 1030.12 1064 1061.4 1052.06C1121.07 1029.45 1180.42 1006.2 1239.44 982.174C1265.08 971.809 1280.4 952.02 1282.34 924.693C1283.63 904.276 1282.5 883.545 1282.5 862.814Z" fill="#606060"/>
</svg>
