<svg width="1061" height="566" viewBox="0 0 1061 566" fill="none" xmlns="http://www.w3.org/2000/svg">
<path d="M1060.55 409.47C1060.55 373.701 1059.67 337.64 1060.85 301.871C1062.91 237.957 1011.58 170.231 956.12 148.536C849.918 107.197 744.6 64.0986 638.692 21.5869C566.12 -7.43831 493.548 -7.14512 420.976 22.1733C316.248 64.0986 211.521 106.317 106.498 148.243C43.3662 173.456 0 235.905 0 303.337C0 373.408 0 443.479 0 513.55C0 581.569 42.7762 447.809 106.498 473.316C210.636 514.948 161.43 472.798 266.157 513.55C194.055 450.669 261.318 473.316 420.976 513.55C580.634 553.785 570.538 557.58 644.297 550.516C718.056 543.452 957.595 560.471 957.595 560.471C957.595 560.471 1057.31 588.605 1060.26 517.948C1061.73 481.886 1060.55 445.531 1060.55 409.47Z" fill="#F0F0F0"/>
</svg>
