<svg width="1087" height="579" viewBox="0 0 1087 579" fill="none" xmlns="http://www.w3.org/2000/svg">
<path d="M0.457849 160.126C0.457852 196.716 1.36447 233.606 0.155491 270.196C-1.96023 335.578 50.629 404.859 107.45 427.053C216.255 469.341 324.154 513.429 432.657 556.917C507.007 586.609 581.357 586.309 655.708 556.318C763.002 513.429 870.296 470.241 977.892 427.353C1042.57 401.56 1087 337.677 1087 268.696C1087 197.015 1087 125.335 1087 53.6545C1087 -15.9265 1043.18 120.906 977.892 94.8133C871.203 52.2249 921.615 95.3432 814.32 53.6546C888.19 117.98 819.278 94.8133 655.708 53.6546C492.137 12.4959 502.481 8.61364 426.914 15.8396C351.347 23.0655 105.938 5.65652 105.938 5.65652C105.938 5.65652 3.7823 -23.1245 0.759963 49.1559C-0.751264 86.0458 0.457846 123.236 0.457849 160.126Z" fill="#F0F0F0"/>
</svg>
