<svg width="274" height="215" viewBox="0 0 274 215" fill="none"
    xmlns="http://www.w3.org/2000/svg"
    xmlns:xlink="http://www.w3.org/1999/xlink">
    <g filter="url(#filter0_d_381_551)">
        <mask id="mask0_381_551" style="mask-type:alpha" maskUnits="userSpaceOnUse" x="4" y="0" width="266" height="207">
            <path d="M269.888 103.287C269.888 94.2643 269.666 85.1679 269.962 76.1455C270.48 60.0235 257.611 42.94 243.706 37.4674C217.08 27.0398 190.676 16.1686 164.124 5.4452C145.93 -1.87628 127.736 -1.80232 109.542 5.59311C83.2856 16.1686 57.0297 26.818 30.6997 37.3935C14.8722 43.7535 4 59.5058 4 76.5153C4 94.1903 4 111.865 4 129.541C4 146.698 14.7243 162.45 30.6997 168.884C56.8078 179.386 82.8419 190.109 109.098 200.389C115.385 202.829 122.189 204.604 128.845 205.566C141.493 207.34 153.696 205.048 165.53 200.241C191.638 189.517 218.042 179.46 244.076 168.44C260.347 161.563 269.074 148.473 269.814 130.65C270.184 121.553 269.888 112.383 269.888 103.287Z" fill="#606060"/>
        </mask>
        <g mask="url(#mask0_381_551)">
            <rect x="-39" y="24" width="324" height="243" fill="url(#pattern0)"/>
            <path d="M136.795 68.1558C145.818 68.1558 154.914 67.934 163.937 68.2298C180.059 68.7476 197.142 55.8784 202.615 41.9738C213.042 15.3481 223.913 -11.0558 234.637 -37.6077C241.958 -55.802 241.884 -73.9962 234.489 -92.1905C223.913 -118.446 213.264 -144.702 202.689 -171.032C196.329 -186.86 180.576 -197.732 163.567 -197.732C145.892 -197.732 128.217 -197.732 110.542 -197.732C93.3841 -197.732 77.6319 -187.008 71.1978 -171.032C60.6963 -144.924 49.973 -118.89 39.6933 -92.6343C37.2528 -86.3476 35.4779 -79.5432 34.5165 -72.8868C32.7416 -60.2396 35.0342 -48.0361 39.8412 -36.2024C50.5646 -10.0944 60.6224 16.3095 71.6416 42.3437C78.5193 58.615 91.6092 67.3423 109.432 68.0819C118.529 68.4517 127.699 68.1558 136.795 68.1558Z" fill="white"/>
        </g>
    </g>
</svg>
