<svg width="274" height="215" viewBox="0 0 274 215" fill="none" xmlns="http://www.w3.org/2000/svg">
<g filter="url(#filter0_d_1153_34)">
<path d="M269.888 103.287C269.888 94.2643 269.666 85.1679 269.962 76.1455C270.48 60.0235 257.611 42.94 243.706 37.4674C217.08 27.0398 190.676 16.1686 164.124 5.4452C145.93 -1.87628 127.736 -1.80232 109.542 5.59311C83.2856 16.1686 57.0297 26.818 30.6997 37.3935C14.8722 43.7535 4 59.5058 4 76.5153C4 94.1903 4 111.865 4 129.54C4 146.698 14.7243 162.45 30.6997 168.884C56.8078 179.386 82.8419 190.109 109.098 200.389C115.385 202.829 122.189 204.604 128.845 205.566C141.493 207.34 153.696 205.048 165.53 200.241C191.638 189.517 218.042 179.46 244.076 168.44C260.347 161.563 269.074 148.473 269.814 130.65C270.184 121.553 269.888 112.383 269.888 103.287Z" fill="#606060"/>
</g>
<defs>
<filter id="filter0_d_1153_34" x="0" y="0" width="274" height="214.164" filterUnits="userSpaceOnUse" color-interpolation-filters="sRGB">
<feFlood flood-opacity="0" result="BackgroundImageFix"/>
<feColorMatrix in="SourceAlpha" type="matrix" values="0 0 0 0 0 0 0 0 0 0 0 0 0 0 0 0 0 0 127 0" result="hardAlpha"/>
<feOffset dy="4"/>
<feGaussianBlur stdDeviation="2"/>
<feComposite in2="hardAlpha" operator="out"/>
<feColorMatrix type="matrix" values="0 0 0 0 0 0 0 0 0 0 0 0 0 0 0 0 0 0 0.25 0"/>
<feBlend mode="normal" in2="BackgroundImageFix" result="effect1_dropShadow_1153_34"/>
<feBlend mode="normal" in="SourceGraphic" in2="effect1_dropShadow_1153_34" result="shape"/>
</filter>
</defs>
</svg>
