<svg width="208" height="69" viewBox="0 0 208 69" fill="none" xmlns="http://www.w3.org/2000/svg">
<path d="M103.795 68.1558C112.818 68.1558 121.914 67.934 130.937 68.2298C147.059 68.7475 164.142 55.8784 169.615 41.9739C180.042 15.3481 190.913 -11.0558 201.637 -37.6077C208.958 -55.8019 208.884 -73.9962 201.489 -92.1905C190.913 -118.446 180.264 -144.702 169.689 -171.032C163.329 -186.86 147.576 -197.732 130.567 -197.732C112.892 -197.732 95.2166 -197.732 77.5415 -197.732C60.3841 -197.732 44.6319 -187.008 38.1978 -171.032C27.6963 -144.924 16.973 -118.89 6.69332 -92.6343C4.25283 -86.3476 2.47793 -79.5432 1.51652 -72.8868C-0.258383 -60.2396 2.03419 -48.0361 6.84121 -36.2024C17.5646 -10.0944 27.6224 16.3096 38.6416 42.3436C45.5193 58.615 58.6092 67.3423 76.4322 68.0819C85.5286 68.4517 94.6989 68.1558 103.795 68.1558Z" fill="white"/>
</svg>
