<svg width="580" height="438" viewBox="0 0 580 438" fill="none" xmlns="http://www.w3.org/2000/svg">
<path d="M579.756 219.286C579.756 238.76 580.401 258.078 579.594 277.552C577.982 315.402 558.952 343.043 523.473 357.806C466.869 381.207 409.296 402.723 352.208 425.338C326.405 435.704 299.796 440.572 272.219 436.646C257.544 434.604 242.868 430.835 229.161 425.652C172.072 403.822 115.306 381.05 58.2174 358.748C23.3837 344.928 -2.723e-05 311.475 -2.40447e-05 275.039C-2.07632e-05 237.504 -1.74818e-05 199.968 -1.42003e-05 162.433C-1.10424e-05 126.311 23.7063 92.8584 58.2175 79.3519C115.467 56.8934 172.878 34.4349 230.128 11.8194C269.8 -3.72878 309.472 -4.04288 349.144 11.5053C407.039 34.1209 464.611 57.3646 522.667 79.509C552.985 91.1309 581.046 127.41 579.917 161.647C579.272 180.808 579.756 199.968 579.756 219.286ZM557.501 218.814C557.662 218.814 557.662 218.814 557.823 218.814C557.823 200.282 557.823 181.75 557.823 163.218C557.662 134.477 540.084 109.506 512.669 98.8264C454.451 76.2109 396.395 53.1242 338.177 30.5086C307.053 18.4156 275.283 17.7874 244.159 29.5663C184.651 52.3389 125.466 76.0538 66.1196 99.4546C39.1879 110.134 22.0936 135.263 22.0936 163.532C22.0936 199.654 22.8999 235.776 21.7711 271.898C20.9647 300.011 40.8006 329.379 69.1836 340.059C126.917 361.889 184.006 385.29 241.74 407.434C273.025 419.527 305.118 419.999 336.403 408.063C396.072 385.447 455.419 362.203 514.442 338.174C540.084 327.809 555.404 308.02 557.34 280.693C558.63 260.276 557.501 239.545 557.501 218.814Z" fill="#606060"/>
</svg>
