<svg width="716" height="556" viewBox="0 0 716 556" fill="none" xmlns="http://www.w3.org/2000/svg">
<path d="M715.698 278.553C715.698 254.22 715.101 229.688 715.898 205.356C717.291 161.877 682.651 115.804 645.224 101.045C573.554 72.9234 502.482 43.6048 431.012 14.6851C382.038 -5.06011 333.064 -4.86066 284.089 15.084C213.415 43.6048 142.742 72.3251 71.8685 100.846C29.265 117.998 0 160.48 0 206.353C0 254.021 0 301.688 0 349.356C0 395.628 28.8668 438.11 71.8685 455.462C142.144 483.783 212.221 512.703 282.895 540.426C299.817 547.007 318.132 551.794 336.05 554.387C370.093 559.174 402.941 552.991 434.794 540.027C505.07 511.107 576.142 483.982 646.219 454.265C690.017 435.716 713.509 400.414 715.499 352.348C716.495 327.816 715.698 303.085 715.698 278.553Z" fill="#606060"/>
</svg>
