<svg width="1127" height="864" viewBox="0 0 1127 864" fill="none" xmlns="http://www.w3.org/2000/svg">
<path d="M-14.5189 431.436C-14.5189 393.02 -15.7891 354.914 -14.2014 316.499C-11.0261 241.837 26.4424 187.312 96.2988 158.19C207.752 112.03 321.11 69.5869 433.515 24.9753C484.32 4.52844 536.712 -5.0755 591.01 2.66956C619.905 6.69702 648.8 14.1323 675.79 24.3557C788.196 67.4182 899.966 112.339 1012.37 156.331C1080.96 183.594 1127 249.582 1127 321.456C1127 395.499 1127 469.541 1127 543.584C1127 614.838 1080.32 680.826 1012.37 707.469C899.649 751.771 786.608 796.073 673.885 840.684C595.773 871.354 517.661 871.974 439.548 841.304C325.555 796.692 212.197 750.841 97.8865 707.159C38.1909 684.234 -17.0592 612.67 -14.8364 545.133C-13.5664 507.337 -14.5189 469.541 -14.5189 431.436ZM29.3002 432.365C28.9825 432.365 28.9827 432.365 28.6652 432.365C28.6652 468.922 28.6652 505.478 28.6652 542.035C28.9827 598.729 63.5934 647.987 117.573 669.054C232.202 713.665 346.512 759.206 461.14 803.818C522.424 827.672 584.977 828.912 646.26 805.676C763.429 760.755 879.962 713.975 996.813 667.815C1049.84 646.748 1083.5 597.18 1083.5 541.415C1083.5 470.161 1081.91 398.906 1084.13 327.652C1085.72 272.197 1046.67 214.264 990.78 193.198C877.104 150.135 764.699 103.975 651.023 60.2928C589.422 36.438 526.234 35.5086 464.633 59.0536C347.147 103.665 230.296 149.516 114.081 196.915C63.5934 217.362 33.428 256.397 29.6177 310.303C27.0774 350.577 29.3002 391.471 29.3002 432.365Z" fill="#D1D1D1" fill-opacity="0.7"/>
</svg>
