<svg width="866" height="886" viewBox="0 0 866 886" fill="none" xmlns="http://www.w3.org/2000/svg">
<path d="M865.501 443.881C865.501 405.106 864.512 366.014 865.83 327.24C868.137 257.954 810.806 184.537 748.863 161.018C630.248 116.205 512.622 69.4854 394.336 23.4011C313.283 -8.06341 232.229 -7.74558 151.176 24.0367C34.2086 69.4854 -82.7588 115.252 -200.056 160.701C-270.566 188.033 -319 255.73 -319 328.829C-319 404.788 -319 480.748 -319 556.708C-319 630.443 -271.225 698.139 -200.056 725.79C-83.7472 770.92 32.2317 817.005 149.199 861.182C177.205 871.67 207.518 879.298 237.172 883.43C293.514 891.057 347.879 881.205 400.597 860.546C516.905 814.462 634.531 771.238 750.51 723.883C822.997 694.325 861.877 638.07 865.171 561.475C866.819 522.383 865.501 482.973 865.501 443.881Z" fill="#D1D1D1"/>
</svg>
