<svg width="480" height="449" viewBox="0 0 480 449" fill="none" xmlns="http://www.w3.org/2000/svg">
<path d="M479.746 224.946C479.746 205.297 479.244 185.486 479.914 165.836C481.086 130.724 451.961 93.5183 420.492 81.5996C360.234 58.8896 300.478 35.2132 240.387 11.859C199.21 -4.08631 158.034 -3.92525 116.857 12.1811C57.4359 35.2132 -1.98546 58.4064 -61.5743 81.4385C-97.3945 95.29 -122 129.597 -122 166.641C-122 205.135 -122 243.63 -122 282.124C-122 319.491 -97.7293 353.797 -61.5743 367.81C-2.48761 390.681 56.4317 414.035 115.853 436.423C130.081 441.738 145.48 445.604 160.545 447.697C189.167 451.563 216.786 446.57 243.567 436.101C302.654 412.747 362.41 390.842 421.329 366.843C458.154 351.865 477.905 323.356 479.579 284.54C480.416 264.729 479.746 244.757 479.746 224.946Z" fill="#D1D1D1" fill-opacity="0.25"/>
</svg>
