<svg width="235" height="177" viewBox="0 0 235 177" fill="none" xmlns="http://www.w3.org/2000/svg">
<path d="M234.36 88.653C234.36 80.9372 234.164 73.1581 234.425 65.4423C234.881 51.655 223.538 37.0455 211.282 32.3654C187.814 23.4479 164.541 14.151 141.137 4.9805C125.1 -1.28071 109.064 -1.21746 93.0268 5.10699C69.8842 14.151 46.7416 23.2582 23.5338 32.3021C9.583 37.7412 0 51.2122 0 65.7585C0 80.8739 0 95.9894 0 111.105C0 125.778 9.45262 139.249 23.5338 144.751C46.546 153.732 69.493 162.902 92.6356 171.693C98.1768 173.78 104.174 175.298 110.042 176.12C121.189 177.638 131.945 175.677 142.376 171.567C165.388 162.396 188.661 153.795 211.608 144.371C225.95 138.49 233.643 127.295 234.295 112.053C234.62 104.274 234.36 96.4321 234.36 88.653Z" fill="#767BA3"/>
</svg>
