<svg width="472" height="371" viewBox="0 0 472 371" fill="none" xmlns="http://www.w3.org/2000/svg">
<path d="M471.801 185.258C471.801 168.763 472.326 152.4 471.67 135.905C470.358 103.845 454.871 80.4317 425.999 67.927C379.934 48.1058 333.082 29.8809 286.624 10.7248C265.626 1.94494 243.972 -2.17896 221.53 1.14675C209.587 2.87612 197.645 6.0688 186.489 10.4587C140.031 28.9497 93.8353 48.2388 47.377 67.1288C19.0295 78.8353 0 107.17 0 138.033C0 169.827 0 201.621 0 233.414C0 264.011 19.292 292.346 47.377 303.786C93.9665 322.809 140.687 341.833 187.277 360.989C219.561 374.158 251.846 374.424 284.131 361.255C331.245 342.099 378.097 322.41 425.343 303.653C450.016 293.809 472.851 263.08 471.932 234.079C471.407 217.85 471.801 201.621 471.801 185.258ZM453.69 185.657C453.822 185.657 453.822 185.657 453.953 185.657C453.953 201.355 453.953 217.052 453.953 232.749C453.822 257.093 439.517 278.245 417.206 287.291C369.829 306.447 322.583 326.002 275.206 345.158C249.877 355.401 224.024 355.934 198.695 345.956C150.268 326.667 102.103 306.58 53.8076 286.759C31.8909 277.713 17.9796 256.428 17.9796 232.483C17.9796 201.887 18.6358 171.29 17.7172 140.694C17.061 116.881 33.2033 92.0052 56.3012 82.9592C103.284 64.4683 149.743 44.6471 196.726 25.89C222.186 15.6469 248.303 15.2478 273.763 25.3579C322.321 44.514 370.617 64.2022 418.65 84.5556C439.517 93.3354 451.984 110.097 453.559 133.244C454.609 150.538 453.69 168.097 453.69 185.657Z" fill="#E8E8E8"/>
</svg>
