<svg width="25" height="25" viewBox="0 0 25 25" fill="none" xmlns="http://www.w3.org/2000/svg">
<path d="M23.5473 0.0166702C23.516 0.0246525 23.4203 0.042614 23.3344 0.0545864C22.9085 0.12244 22.2912 0.385868 21.6563 0.773029C19.5796 2.03629 16.3133 5.09167 12.3027 9.52605C11.0348 10.929 9.60289 12.5714 8.67105 13.697C8.51672 13.8826 8.34286 14.0922 8.28425 14.162L8.17876 14.2877L7.81735 14.0941C3.43555 11.7672 1.26907 11.2064 0.376305 12.1743C0.190718 12.3739 0.106716 12.5515 0.0383419 12.8788C-0.0124502 13.1242 -0.0124502 13.1721 0.0363883 13.3178C0.102809 13.5154 0.159462 13.5872 0.48961 13.8966C1.22219 14.5811 2.34743 15.7645 2.98819 16.5209C4.56275 18.3848 6.11777 20.7537 8.03615 24.2122C8.17681 24.4637 8.32332 24.7071 8.36435 24.755C8.45421 24.8588 8.5597 24.9247 8.71794 24.9746C8.82734 25.0085 8.8371 25.0085 8.96018 24.9746C9.13209 24.9287 9.21218 24.8828 9.30986 24.779C9.40754 24.6752 9.43684 24.6173 9.58531 24.2342C9.75722 23.7931 10.105 22.941 10.3277 22.4181C12.9141 16.3273 16.0711 11.1625 19.8551 6.83189C20.7322 5.82807 21.9747 4.53288 23.4398 3.09599C24.6315 1.92852 24.8679 1.63117 24.9734 1.15819C25.0085 0.996544 25.0085 0.986567 24.9753 0.858843C24.8562 0.393852 24.5709 0.156366 23.9868 0.0346298C23.7954 -0.00328827 23.6489 -0.0112705 23.5473 0.0166702Z" fill="#767BA3"/>
</svg>
