<svg width="1150" height="858" viewBox="0 0 1150 858" fill="none" xmlns="http://www.w3.org/2000/svg">
<path d="M1149.52 429.853C1149.52 392.304 1148.56 354.447 1149.84 316.898C1152.07 249.802 1096.44 178.705 1036.32 155.93C921.211 112.533 807.059 67.2894 692.267 22.6615C613.608 -7.80858 534.948 -7.5008 456.289 23.2771C342.776 67.2894 229.264 111.61 115.431 155.622C47.0039 182.091 0 247.648 0 318.437C0 391.996 0 465.555 0 539.114C0 610.519 46.3644 676.076 115.431 702.853C228.304 746.557 340.858 791.185 454.37 833.966C481.55 844.123 510.967 851.51 539.745 855.511C594.423 862.898 647.182 853.356 698.343 833.351C811.216 788.723 925.368 746.865 1037.92 701.006C1108.27 672.383 1146 617.906 1149.2 543.731C1150.79 505.874 1149.52 467.71 1149.52 429.853Z" fill="#5B5B5B"/>
</svg>
