<svg width="500" height="300" viewBox="0 0 323 243" fill="none"
    xmlns="http://www.w3.org/2000/svg">
    <path d="M322.864 121.742C322.864 111.107 322.595 100.385 322.954 89.7508C323.582 70.7482 307.956 50.6124 291.072 44.1619C258.74 31.8712 226.678 19.0575 194.437 6.41812C172.344 -2.21152 150.251 -2.12435 128.158 6.59246C96.2754 19.0575 64.3932 31.6097 32.4211 44.0747C13.202 51.5712 0 70.138 0 90.1867C0 111.02 0 131.853 0 152.686C0 172.909 13.0223 191.476 32.4211 199.06C64.1238 211.438 95.7366 224.077 127.619 236.193C135.253 239.07 143.515 241.162 151.598 242.295C166.955 244.387 181.774 241.685 196.143 236.019C227.846 223.38 259.908 211.525 291.521 198.537C311.279 190.43 321.876 175.001 322.774 153.994C323.223 143.272 322.864 132.463 322.864 121.742Z" fill="#5B5B5B"/>
</svg>
