<svg width="420" height="329" viewBox="0 0 420 329" fill="none" xmlns="http://www.w3.org/2000/svg">
<path d="M419.823 164.285C419.823 149.657 420.29 135.147 419.706 120.519C418.539 92.0887 404.759 71.3262 379.067 60.2372C338.077 42.6598 296.387 26.4981 255.047 9.51068C236.362 1.72476 217.094 -1.93228 197.124 1.01691C186.497 2.55051 175.87 5.38174 165.944 9.27472C124.604 25.6724 83.4975 42.7778 42.1575 59.5293C16.9331 69.9106 0 95.0379 0 122.407C0 150.601 0 178.796 0 206.99C0 234.123 17.1666 259.25 42.1575 269.395C83.6143 286.265 125.188 303.134 166.645 320.122C195.372 331.801 224.1 332.037 252.828 320.358C294.752 303.37 336.442 285.911 378.483 269.278C400.438 260.548 420.757 233.297 419.94 207.58C419.473 193.188 419.823 178.796 419.823 164.285ZM403.708 164.639C403.824 164.639 403.824 164.639 403.941 164.639C403.941 178.56 403.941 192.48 403.941 206.4C403.824 227.988 391.095 246.746 371.243 254.767C329.085 271.755 287.045 289.096 244.887 306.084C222.349 315.167 199.343 315.639 176.804 306.792C133.713 289.686 90.8546 271.873 47.8797 254.295C28.3775 246.274 15.9988 227.399 15.9988 206.164C15.9988 179.032 16.5827 151.899 15.7653 124.766C15.1814 103.65 29.5453 81.5895 50.0985 73.5676C91.9056 57.17 133.246 39.5927 175.053 22.9591C197.708 13.8755 220.947 13.5216 243.603 22.4872C286.811 39.4747 329.786 56.934 372.527 74.9832C391.095 82.7691 402.189 97.6332 403.591 118.16C404.525 133.496 403.708 149.068 403.708 164.639Z" fill="#5B5B5B"/>
</svg>
