<svg width="1041" height="778" viewBox="0 0 1041 778" fill="none"
    xmlns="http://www.w3.org/2000/svg">
    <path d="M1040.56 389.773C1040.56 355.725 1039.69 321.398 1040.85 287.35C1042.88 226.511 992.513 162.043 938.097 141.391C833.897 102.04 730.564 61.0154 626.652 20.5486C555.449 -7.08051 484.245 -6.80143 413.041 21.1067C310.287 61.0154 207.533 101.203 104.49 141.112C42.5487 165.113 0 224.557 0 288.746C0 355.446 0 422.147 0 488.847C0 553.594 41.9698 613.038 104.49 637.319C206.665 676.948 308.55 717.415 411.304 756.207C435.907 765.417 462.536 772.115 488.586 775.743C538.082 782.441 585.841 773.789 632.152 755.649C734.327 715.182 837.659 677.227 939.545 635.644C1003.22 609.689 1037.38 560.292 1040.27 493.033C1041.72 458.706 1040.56 424.1 1040.56 389.773Z" fill="#5B5B5B"/>
    <path d="M1040.56 388.493C1040.56 353.901 1041.72 319.588 1040.27 284.997C1037.38 217.766 1003.22 168.668 939.545 142.445C837.949 100.88 734.616 62.6613 632.152 22.4903C585.84 4.07862 538.082 -4.56934 488.586 2.40479C462.247 6.03134 435.907 12.7265 411.304 21.9324C308.84 60.7085 206.955 101.158 104.49 140.772C41.9698 165.32 0 224.74 0 289.46C0 356.133 0 422.805 0 489.478C0 553.64 42.5487 613.06 104.49 637.051C207.244 676.943 310.287 716.835 413.041 757.006C484.245 784.623 555.449 785.181 626.652 757.564C730.564 717.393 833.896 676.106 938.097 636.772C992.513 616.128 1042.88 551.687 1040.85 490.873C1039.69 456.839 1040.56 422.805 1040.56 388.493ZM1000.62 389.33C1000.91 389.33 1000.91 389.33 1001.2 389.33C1001.2 422.247 1001.2 455.165 1001.2 488.083C1000.91 539.134 969.358 583.489 920.152 602.459C815.661 642.63 711.46 683.638 606.97 723.809C551.107 745.289 494.086 746.405 438.223 725.483C331.417 685.033 225.19 642.909 118.673 601.343C70.3356 582.374 39.6542 537.739 39.6542 487.525C39.6542 423.363 41.1015 359.201 39.0753 295.039C37.6281 245.105 73.2301 192.938 124.173 173.968C227.795 135.192 330.259 93.6264 433.881 54.2923C490.034 32.812 547.634 31.9751 603.786 53.1765C710.882 93.3475 817.398 134.634 923.336 177.316C969.358 195.728 996.855 230.877 1000.33 279.417C1002.64 315.683 1000.62 352.506 1000.62 389.33Z" fill="#E8E8E8"/>
</svg>
