<svg width="1440" height="627" viewBox="0 0 1440 627" fill="none" xmlns="http://www.w3.org/2000/svg">
<path d="M1719.55 409.47C1719.55 373.701 1718.67 337.64 1719.85 301.871C1721.91 237.957 1670.58 170.231 1615.12 148.536C1508.92 107.197 1403.6 64.0987 1297.69 21.5869C1225.12 -7.43831 1152.55 -7.14512 1079.98 22.1733C975.248 64.0986 870.521 106.317 765.498 148.243C702.366 173.456 659 235.905 659 303.337C659 373.408 659 443.479 659 513.55C659 581.569 701.776 447.809 765.498 473.316C869.636 514.948 820.43 472.798 925.157 513.55C853.055 450.669 920.318 473.316 1079.98 513.55C1239.63 553.785 1229.54 557.58 1303.3 550.516C1377.06 543.452 1616.6 560.471 1616.6 560.471C1616.6 560.471 1716.31 588.605 1719.26 517.948C1720.73 481.886 1719.55 445.531 1719.55 409.47Z" fill="#E8E8E8"/>
<path d="M565.772 509.344C565.772 482.671 565.112 455.78 565.992 429.107C567.531 381.446 529.258 330.943 487.904 314.764C408.717 283.937 330.19 251.799 251.223 220.098C197.111 198.453 143 198.672 88.889 220.535C10.8017 251.799 -67.2856 283.281 -145.593 314.545C-192.665 333.348 -225 379.916 -225 430.2C-225 482.453 -225 534.705 -225 586.958C-225 637.68 -193.105 537.934 -145.593 556.955C-67.9455 588 -104.635 556.568 -26.5472 586.958C-80.3083 540.067 -30.1555 556.955 88.889 586.958C207.934 616.961 200.405 619.791 255.402 614.523C310.399 609.256 489.004 621.947 489.004 621.947C489.004 621.947 563.352 642.927 565.552 590.237C566.652 563.346 565.772 536.236 565.772 509.344Z" fill="#5B5B5B"/>
<path d="M170.369 414.518C170.369 399.289 169.885 384.182 170.49 368.953C171.7 339.355 185.983 317.739 212.612 306.195C255.098 287.895 298.31 271.069 341.159 253.384C360.526 245.278 380.497 241.471 401.196 244.541C412.21 246.138 423.225 249.085 433.514 253.138C476.363 270.21 518.969 288.018 561.818 305.458C587.963 316.265 605.514 342.425 605.514 370.918C605.514 400.271 605.514 429.624 605.514 458.977C605.514 487.225 587.721 513.384 561.818 523.947C518.848 541.509 475.757 559.072 432.788 576.757C403.011 588.916 373.235 589.162 343.459 577.003C300.005 559.317 256.793 541.141 213.218 523.824C190.462 514.735 169.401 486.365 170.248 459.591C170.732 444.608 170.369 429.624 170.369 414.518ZM187.073 414.886C186.952 414.886 186.952 414.886 186.831 414.886C186.831 429.379 186.831 443.871 186.831 458.363C186.952 480.838 200.145 500.366 220.722 508.717C264.418 526.403 307.993 544.457 351.689 562.142C375.051 571.599 398.896 572.09 422.257 562.879C466.921 545.071 511.344 526.526 555.887 508.226C576.101 499.875 588.931 480.224 588.931 458.117C588.931 429.87 588.326 401.622 589.174 373.375C589.779 351.391 574.891 328.424 553.587 320.073C510.254 303.001 467.405 284.702 424.072 267.385C400.59 257.928 376.503 257.56 353.021 266.894C308.235 284.579 263.692 302.756 219.391 321.547C200.145 329.652 188.646 345.127 187.194 366.497C186.225 382.463 187.073 398.675 187.073 414.886Z" fill="#D1D1D1" fill-opacity="0.7"/>
</svg>
