<svg width="534" height="569" viewBox="0 0 534 569" fill="none" xmlns="http://www.w3.org/2000/svg">
<path d="M724.695 284.129C724.695 258.83 725.501 233.735 724.493 208.436C722.477 159.266 698.69 123.357 654.342 104.179C583.586 73.7794 511.62 45.8281 440.26 16.4485C408.006 2.98291 374.745 -3.34192 340.274 1.75873C321.93 4.41107 303.586 9.30762 286.451 16.0405C215.09 44.3999 144.133 73.9835 72.7718 102.955C29.2297 120.909 0 164.366 0 211.7C0 260.462 0 309.224 0 357.986C0 404.912 29.6329 448.369 72.7718 465.915C144.334 495.09 216.098 524.266 287.66 553.646C337.25 573.844 386.84 574.252 436.429 554.054C508.798 524.674 580.764 494.478 653.334 465.711C691.232 450.613 726.307 403.483 724.896 359.006C724.09 334.115 724.695 309.224 724.695 284.129ZM696.876 284.741C697.078 284.741 697.078 284.741 697.279 284.741C697.279 308.816 697.279 332.891 697.279 356.966C697.078 394.302 675.105 426.742 640.836 440.616C568.064 469.995 495.494 499.987 422.722 529.367C383.816 545.077 344.104 545.893 305.198 530.591C230.814 501.007 156.832 470.199 82.6495 439.8C48.9849 425.926 27.617 393.282 27.617 356.558C27.617 309.632 28.6249 262.706 27.2138 215.781C26.2059 179.26 51.0008 141.108 86.4796 127.234C158.647 98.8745 230.007 68.4748 302.174 39.7073C341.282 23.9974 381.397 23.3854 420.504 38.8912C495.09 68.2708 569.273 98.4664 643.053 129.682C675.105 143.148 694.255 168.855 696.674 204.355C698.287 230.879 696.876 257.81 696.876 284.741Z" fill="#E8E8E8"/>
</svg>
